<svg width="727" height="614" viewBox="0 0 727 614" fill="none" xmlns="http://www.w3.org/2000/svg">
<path d="M0 614V307V0H727V614H0Z" fill="#1FBA9B"/>
<path d="M349.75 110.25C350.44 109.01 352.24 107.34 353.75 106.54C355.26 105.74 357.74 105.06 359.25 105.04C360.76 105.02 363.35 105.67 365 106.5C366.65 107.32 368.68 109.35 369.5 111C370.68 113.35 371 118.11 371 152L427.25 151.99C480.76 151.98 483.89 152.08 491.5 154.03C495.9 155.16 501.98 157.5 505 159.22C508.02 160.94 513.66 165.53 517.51 169.42C522.48 174.44 525.59 178.69 528.16 184C530.16 188.12 532.4 193.97 533.15 197C534.24 201.46 534.5 223.88 534.5 315.5C534.5 422.92 534.41 428.8 532.64 434.5C531.61 437.8 529.14 443.65 527.14 447.5C525.03 451.56 520.99 457.04 517.5 460.54C514.2 463.87 508.57 468.24 505 470.26C501.43 472.28 494.9 474.85 490.5 475.97C483.17 477.85 479.57 478.02 412.5 477.95L390 511.59C374.78 534.33 366.61 545.67 364.75 546.61C363.24 547.37 360.76 548.01 359.25 548.03C357.74 548.04 355.03 547.03 353.24 545.78C351.18 544.33 342.1 531.59 306.91 478.5L269.21 477.97C234.04 477.47 231.06 477.29 225 475.27C221.43 474.08 215.13 470.92 211 468.24C206.88 465.56 201.56 461.15 199.18 458.43C196.8 455.72 193.73 451.48 192.35 449C190.97 446.52 188.64 441.12 184.5 429.5V199.5L187.04 192.5C188.44 188.65 190.74 183.47 192.16 181C193.59 178.52 196.98 174.02 199.71 171C202.44 167.97 207.33 163.72 210.59 161.55C213.84 159.38 219.65 156.45 230.5 152.5L347.5 151.5L348 132C348.33 119.14 348.93 111.73 349.75 110.25Z" fill="#F5FCFB"/>
<path d="M116.77 226.29C117.72 225.08 120.08 223.42 122 222.6C123.92 221.79 126.62 221.39 128 221.7C129.37 222.02 131.29 222.66 132.25 223.14C133.21 223.61 134.9 225.46 136 227.25C137.92 230.38 137.99 232.29 138 279.25C138 323.63 137.84 328.33 136.25 331.64C135.29 333.64 133.26 335.89 131.75 336.64C130.24 337.39 127.43 338 125.5 338C122.83 338 121.17 337.17 115 331L115.02 279.75C115.04 232.73 115.19 228.32 116.77 226.29Z" fill="#F5FCFB"/>
<path d="M582.5 228C583.33 226.35 585.01 224.32 586.25 223.49C587.49 222.66 590.52 222 593 222.01C595.74 222.03 598.34 222.72 599.63 223.77C600.81 224.72 602.27 226.51 602.88 227.75C603.66 229.32 604 245.32 604 331L601.25 334.06C599.36 336.17 597.25 337.3 594.5 337.69C591.94 338.05 589.42 337.71 587.5 336.76C585.85 335.94 583.71 333.64 582.75 331.64C581.16 328.33 581 323.64 581 279.5C581 238.39 581.23 230.54 582.5 228Z" fill="#F5FCFB"/>
<path d="M221.119 182.76C222.979 181.25 227.199 178.89 230.499 177.52L236.499 175.03L484.539 175.5L491.019 178.64C495.139 180.65 499.059 183.56 501.789 186.64C504.159 189.32 507.079 193.52 510.499 200.5L510.999 361H207.999V282.5C207.999 206.33 208.059 203.83 210.019 198.25C211.129 195.09 213.319 190.93 214.889 189C216.459 187.07 219.259 184.26 221.119 182.76Z" fill="#1FBA9B"/>
<path d="M210.709 434C208.669 429.84 208.479 427.8 208.179 407.25L207.859 385H510.999L511.009 404.75C511.019 420.1 510.659 425.73 509.389 430C508.499 433.03 506.469 437.41 504.879 439.75C503.299 442.09 499.859 445.56 497.249 447.47C494.639 449.38 490.479 451.72 487.999 452.67C484.089 454.17 478.069 454.47 401.159 455.5L398.539 458C397.099 459.38 387.729 472.77 377.709 487.77C367.689 502.77 359.219 514.7 358.869 514.27C358.529 513.85 350.149 501.35 340.259 486.5C330.369 471.65 321.269 458.6 320.029 457.5C317.889 455.59 315.999 455.48 234.499 454.5L227.589 451C223.329 448.84 219.189 445.78 216.799 443C214.659 440.53 211.919 436.48 210.709 434Z" fill="#1FBA9B"/>
<path d="M273.659 262.81C275.219 261.32 278.069 259.43 279.999 258.59C281.929 257.76 286.089 257.06 289.249 257.04C292.409 257.02 296.689 257.7 298.749 258.55C300.809 259.4 303.979 261.54 305.779 263.3C307.589 265.06 309.949 268.86 311.029 271.75C312.119 274.64 313.009 278.24 313.019 279.75C313.029 281.26 312.329 284.53 311.469 287C310.599 289.47 308.869 292.85 307.629 294.5C306.379 296.15 302.919 298.74 299.929 300.26C296.119 302.2 293.009 303.02 289.499 303C286.369 302.99 282.629 302.1 279.499 300.62C276.749 299.33 273.509 297.19 272.309 295.88C271.099 294.57 269.129 291.25 267.919 288.5C266.259 284.71 265.859 282.29 266.249 278.5C266.529 275.75 267.669 271.7 268.789 269.5C269.899 267.3 272.099 264.29 273.659 262.81Z" fill="#F5FCFB"/>
<path d="M411.749 265.08C413.809 262.64 417.299 259.84 419.499 258.85C421.829 257.8 425.899 257.03 429.249 257.02C432.409 257.01 436.689 257.7 438.749 258.55C440.809 259.41 443.779 261.32 445.339 262.8C446.899 264.29 449.139 267.3 450.299 269.5C451.839 272.39 452.429 275.3 452.429 280C452.429 284.76 451.829 287.64 450.209 290.75C448.999 293.09 446.539 296.1 444.749 297.44C442.959 298.78 439.809 300.58 437.749 301.44C435.689 302.3 431.859 302.99 429.249 302.98C426.639 302.97 422.479 302.04 419.999 300.92C417.519 299.79 414.439 297.89 413.149 296.69C411.859 295.48 409.949 292.81 408.899 290.75C407.859 288.69 406.719 285.31 406.379 283.25C406.029 281.19 406.259 277.25 406.879 274.5C407.599 271.3 409.349 267.91 411.749 265.08Z" fill="#F5FCFB"/>
</svg>
