<svg version="1.2" xmlns="http://www.w3.org/2000/svg" viewBox="0 0 1280 1280" width="1280" height="1280">
	<style>
		.s0 { fill: #000000 } 
	</style>
	<path id="Path 0" fill-rule="evenodd" class="s0" d="m432.03 516.27c-0.48 1.23-1.84 12.36-3.03 24.73-1.18 12.38-3.47 34.54-5.08 49.25-1.6 14.71-3.31 27.54-3.78 28.5-0.48 0.96-1.6 2.09-2.5 2.5-0.9 0.41-2.76 0.75-4.14 0.75-1.37 0-2.5 0.45-2.5 1 0 0.62 5.5 1 14.5 1 9 0 14.5-0.38 14.5-1 0-0.55-1.46-0.99-3.25-0.98-1.79 0.01-3.82-0.56-4.52-1.25-0.81-0.82-1.26-4.13-1.25-9.27 0.01-4.4 1.17-21.28 2.58-37.5 1.42-16.22 2.66-29.61 2.76-29.75 0.1-0.13 4.18 8.42 9.07 19 4.89 10.59 13.55 28.59 19.25 40 5.7 11.41 10.92 20.74 11.61 20.72 0.69-0.01 9.58-18.07 19.75-40.11 10.17-22.05 18.84-40.26 19.25-40.47 0.41-0.22 0.77 0.85 0.8 2.36 0.02 1.51 1.54 18.72 3.38 38.25 2.5 26.59 3.05 35.82 2.2 36.77-0.62 0.7-0.76 1.6-0.3 2 0.46 0.4 7.32 0.84 15.25 0.98 7.93 0.14 14.43-0.09 14.43-0.5 0.01-0.41-2.2-0.97-4.9-1.25-3.41-0.35-5.7-1.26-7.51-3-1.48-1.42-3.03-4.44-3.59-7-0.54-2.47-1.91-13.28-3.04-24-1.13-10.72-3.39-31.42-5.03-46-1.63-14.58-3.38-26.95-3.87-27.5-0.57-0.64-1.42-0.1-2.36 1.5-0.81 1.38-10.41 21.95-21.34 45.73-10.93 23.78-20.09 43.25-20.37 43.27-0.28 0.03-10.17-20.22-22-44.99-11.83-24.77-22.08-45.25-22.8-45.5-0.71-0.26-1.69 0.53-2.17 1.76zm-413.03 1.73c0 0.55 1.46 1.01 3.25 1.03 1.79 0.02 4.15 0.72 5.25 1.55 1.49 1.13 2.18 3.24 2.7 8.22 0.38 3.69 0.71 22.67 0.72 42.2 0.01 19.53-0.4 38.65-0.9 42.5-0.63 4.86-1.46 7.39-2.72 8.27-0.99 0.69-2.81 1.26-4.05 1.25-1.24-0.01-2.25 0.43-2.25 0.98 0 0.62 6.97 1.13 18.25 1.33 10.04 0.19 20.84-0.04 24-0.5 3.16-0.45 7.89-1.83 10.5-3.06 2.61-1.22 6.56-4.03 8.77-6.25 2.21-2.21 4.9-5.82 5.96-8.02 1.21-2.49 2.1-6.83 2.35-11.5 0.32-6.01-0.02-8.49-1.71-12.5-1.16-2.75-4.25-7.1-6.87-9.67-2.61-2.56-6.78-5.68-9.25-6.92-2.47-1.24-4.61-2.4-4.75-2.58-0.14-0.18 1.53-2.47 3.7-5.08 2.17-2.61 4.94-7 6.16-9.75 1.35-3.05 2.24-7.15 2.29-10.5 0.06-4.21-0.53-6.55-2.54-10-1.43-2.47-4.35-5.68-6.48-7.12-2.14-1.44-5.68-3.12-7.88-3.74-2.36-0.67-12.3-1.13-24.25-1.13-12.84-0.01-20.25 0.36-20.25 0.99zm24.5 3.67c0.46-0.37 3.01-0.67 5.67-0.67 2.66 0 6.29 0.62 8.08 1.38 1.79 0.75 4.47 2.67 5.95 4.25 1.49 1.58 3.41 4.9 4.27 7.37 0.87 2.47 1.56 7.54 1.55 11.25-0.01 3.71-0.62 8.21-1.34 10-0.73 1.79-2.64 4.27-4.25 5.52-1.61 1.25-4.73 2.54-6.93 2.86-2.2 0.33-6.14 0.32-13.5-0.63l-0.17-20.33c-0.09-11.19 0.21-20.64 0.67-21zm-0.24 46.08l8.12 0.45c4.81 0.27 9.44 1.13 11.37 2.12 1.79 0.93 4.91 3.37 6.94 5.43 2.03 2.06 4.79 6.22 6.14 9.25 1.51 3.39 2.64 8.18 2.95 12.5 0.28 3.87 0.01 8.56-0.6 10.5-0.6 1.92-2.13 4.82-3.39 6.43-1.26 1.61-4.09 3.74-6.29 4.73-2.2 0.99-6.25 1.8-9 1.81-2.75 0.01-6.69-0.43-8.75-0.98-2.06-0.54-4.65-1.89-5.75-2.99-1.9-1.9-1.99-3.24-1.87-25.63zm719.35-35.49c-0.32 1.23-0.59 21.03-0.6 44-0.01 25.8-0.39 42.51-1.01 43.75q-1 2-4 2c-1.65 0-3.23 0.45-3.5 1-0.32 0.64 4.66 1 14 1 9.33 0 14.32-0.36 14-1-0.28-0.55-1.96-0.99-3.75-0.97-2.07 0.02-3.98-0.75-5.25-2.12-1.93-2.06-1.99-3.32-1.72-33.78 0.16-17.4 0.49-32.42 0.75-33.38 0.35-1.3 2.65 0.93 8.81 8.5 4.58 5.63 14.89 17.45 22.9 26.25 8 8.8 19.53 20.95 25.62 27 6.09 6.05 11.42 10.62 11.85 10.16 0.44-0.46 1.16-20.03 1.61-43.5 0.66-34.16 1.11-43.11 2.25-44.91 0.86-1.36 2.42-2.25 3.93-2.25 1.37 0 2.68-0.34 2.91-0.75 0.23-0.42-5.74-1.1-13.25-1.51-8.03-0.45-14.07-0.38-14.66 0.15-0.63 0.57 0.59 1.14 3.25 1.51 2.34 0.33 4.81 1.19 5.5 1.91 0.81 0.85 1.51 6.71 2 16.75 0.41 8.49 0.75 24.32 0.75 35.19v19.75c-6.56-7.37-13.2-14.68-19-21-5.79-6.33-16.6-18.24-24.02-26.47-7.41-8.23-16.63-18.26-20.48-22.29-3.85-4.03-7.3-7.31-7.66-7.29-0.36 0.03-0.91 1.06-1.23 2.3zm238.23-0.11c-0.87 1.29-8.03 20.58-15.91 42.86-12.07 34.13-14.82 41.01-17.53 43.75-2.24 2.27-4.13 3.25-6.3 3.25-1.71 0-3.33 0.45-3.6 1-0.32 0.64 4.59 1 13.75 1.01 8.85 0.01 13.87-0.33 13.25-0.91-0.55-0.52-2.13-1.09-3.5-1.27-1.95-0.26-2.57-0.99-2.8-3.33-0.16-1.65 1.75-9.19 4.25-16.75l4.55-13.75h28c1.36 4.26 3.88 11.35 6.46 18.5 2.91 8.06 4.48 13.85 4.12 15.25-0.58 2.24-0.53 2.25 11.42 2.25 7.33 0 12-0.39 12-1 0-0.55-1.35-1-3-1-1.69 0-4.21-1.02-5.75-2.33-1.51-1.28-4.27-5.89-6.14-10.25-1.86-4.36-9.42-23.67-16.81-42.92-7.39-19.25-13.76-35.39-14.16-35.86-0.4-0.47-1.44 0.2-2.3 1.5zm-1.14 17.96c0.38-0.76 0.8-1.21 0.92-1 0.13 0.22 2.91 7.82 6.18 16.9 3.27 9.07 5.78 16.83 5.57 17.25-0.2 0.41-5.55 0.75-11.87 0.75-8.53 0-11.5-0.33-11.51-1.25 0-0.69 2.25-8 5-16.25 2.76-8.25 5.32-15.63 5.71-16.4zm-438.35-17.91c-0.19 0.44 1.45 1.03 3.65 1.31q4 0.5 5 2.5c0.61 1.23 1 17.16 1 41.5 0 24-0.39 40.48-1 42-0.7 1.73-1.77 2.5-3.5 2.5-1.38 0-2.69 0.33-2.91 0.75-0.23 0.41 10.24 1.1 23.25 1.52 18.7 0.62 23.92 0.51 24.91-0.5 0.69-0.7 1.7-3.97 2.24-7.27 0.55-3.3 1-6.57 1-7.25 0-0.69-0.33-1.27-0.74-1.28-0.41-0.01-1.09 1.34-1.5 3-0.41 1.66-1.86 4.15-3.21 5.53-2.31 2.35-3.07 2.5-13 2.5-9.21 0-10.8-0.26-12.54-2-1.86-1.87-2-3.34-2.01-21.25v-19.25c15.5 1.16 20.91 1.95 22.01 2.5q2 1 2 4c0 1.65 0.45 3.22 1 3.5 0.55 0.27 1.2-1.19 1.46-3.25 0.25-2.07 0.7-6.12 1-9l0.54-5.25c-3.71 2.46-8.62 3.25-16.26 3.74l-11.75 0.76 0.01-37.5c16.66 0.96 22.29 1.63 23.25 2.12 0.96 0.48 2.01 2.11 2.33 3.63 0.32 1.51 0.82 3.42 1.1 4.25 0.41 1.18 0.68 1.07 1.27-0.5 0.42-1.1 1-4.7 1.28-8l0.53-6c-38.8-0.09-50.22 0.25-50.41 0.69zm71.53-0.34c0.05 0.36 1.77 1.1 3.83 1.65 2.35 0.62 4.21 1.92 5.02 3.5 1 1.93 1.23 11.41 1.03 42.09-0.22 33.52-0.49 39.86-1.76 41.3-0.83 0.93-2.51 1.67-3.75 1.65-1.24-0.02-2.48 0.41-2.75 0.96-0.32 0.62 2.75 1 8.25 1 4.81 0 16.4 0.3 25.75 0.66 15.03 0.58 17.2 0.46 18.75-1.01 1.18-1.12 1.93-3.84 2.31-8.4 0.32-3.72 0.43-6.88 0.25-7.03-0.17-0.15-1.44 1.88-2.81 4.5-2 3.82-3.3 5.04-6.5 6.11-2.52 0.84-7.24 1.21-12.72 1-7.48-0.29-9.04-0.66-11-2.61l-2.28-2.28c-0.43-69.36-0.19-78.73 0.76-79.69 0.68-0.69 2.7-1.48 4.49-1.75 1.79-0.28 3.2-0.91 3.14-1.4-0.06-0.49-6.85-0.89-15.1-0.89-8.25 0-14.96 0.29-14.91 0.64zm72.01 0.25c0.06 0.49 1.47 1.16 3.14 1.47 1.67 0.32 3.7 1.56 4.51 2.75 1.23 1.82 1.47 8.26 1.46 39.68-0.01 21.63-0.43 39.08-1.01 41.25-0.79 2.98-1.61 3.9-4.02 4.5-1.66 0.41-3.01 1.08-3 1.5 0.02 0.41 6.78 0.75 15.03 0.75 9.66 0 14.82-0.36 14.5-1-0.28-0.55-1.85-1-3.5-1-1.65 0-3.83-0.79-4.84-1.75-1.5-1.43-1.98-4.05-2.58-14.25-0.41-6.88-0.6-25.15-0.41-40.6 0.27-23.23 0.59-28.39 1.83-29.78 0.82-0.93 2.74-1.89 4.25-2.15 1.51-0.26 2.57-0.81 2.34-1.22-0.22-0.42-6.57-0.82-14.1-0.9-7.56-0.08-13.66 0.26-13.6 0.75zm161.06-0.06c0.03 0.53 1.7 1.29 3.72 1.71 2.01 0.41 4.27 1.65 5.01 2.75 1.08 1.6 1.29 9.75 1.08 41.5-0.19 29.31-0.58 40.08-1.51 41.75-0.78 1.4-2.2 2.25-3.75 2.25-1.38 0-2.5 0.33-2.51 0.75 0 0.41 7.76 1.19 17.25 1.74 9.49 0.54 20.63 0.91 24.76 0.81 4.12-0.1 9.75-0.72 12.5-1.38 2.75-0.66 7.25-2.32 10-3.69 2.75-1.37 6.57-3.72 8.5-5.21 1.92-1.49 5.32-5.36 7.55-8.62 2.23-3.25 5.03-8.83 6.22-12.4 1.19-3.58 2.45-9.43 2.8-13 0.35-3.65 0.12-9.36-0.54-13-0.64-3.58-2.26-8.87-3.6-11.75-1.34-2.89-4.4-7.39-6.8-10-2.41-2.62-7.02-6.19-10.25-7.94-3.24-1.76-8.58-3.96-11.88-4.9-4.81-1.36-11.22-1.76-32.3-2.01-16.23-0.19-26.28 0.05-26.25 0.64zm25.43 3.64c1.71-0.24 6.27-0.24 10.12 0.01 3.85 0.24 9.7 1.11 13 1.93 3.3 0.82 8.19 2.7 10.87 4.18 2.67 1.48 6.84 4.83 9.25 7.45 2.41 2.61 5.73 7.56 7.39 11 1.73 3.58 3.49 9.44 4.12 13.75 0.82 5.5 0.81 9.42-0.01 14.75-0.62 3.98-2.13 9.57-3.37 12.41-1.46 3.35-4.18 6.89-7.75 10.07-3.11 2.77-7.9 5.81-11 6.98-3.3 1.25-8.91 2.27-14 2.55-4.68 0.26-10.98-0.02-14-0.63-3.19-0.63-6.34-1.98-7.5-3.22-1.92-2.03-2.01-3.69-2.26-40.27-0.19-27.48 0.06-38.48 0.88-39.34 0.62-0.65 2.54-1.38 4.26-1.62zm-777.62-2.45c0.13 0.42 1.48 0.98 2.99 1.24 1.51 0.26 3.42 1.22 4.25 2.15 1.28 1.43 1.5 7.44 1.5 40.78 0 32.62-0.25 39.64-1.5 42.39-0.83 1.8-2.18 3.27-3 3.26-0.83-0.01-2.18 0.41-3 0.95-1.01 0.64 3.53 0.97 13.75 0.98 9.84 0.01 15.07-0.34 14.75-0.98-0.28-0.55-1.96-0.98-3.75-0.96-1.85 0.03-3.9-0.69-4.75-1.65-1.27-1.44-1.54-7.91-1.75-42.55-0.25-39.69-0.2-40.9 1.75-42.84 1.1-1.1 2.9-2 4-2 1.1 0 1.89-0.35 1.76-0.77-0.12-0.42-6.3-0.77-13.73-0.77-7.42 0-13.39 0.35-13.27 0.77zm51.02-0.01c0.12 0.42 1.34 0.78 2.72 0.78 1.37 0 3.62 1.12 5 2.5l2.5 2.5c-0.44 69.28-0.82 80.07-1.75 81.75-0.69 1.23-2.15 2.25-3.25 2.25-1.1 0-2.19 0.33-2.41 0.75-0.22 0.41 10.46 1.1 23.75 1.54 13.29 0.43 25.01 0.43 26.05 0 1.03-0.44 2.24-1.47 2.67-2.29 0.44-0.83 1.16-4.55 1.61-8.27 0.64-5.18 0.54-6.75-0.42-6.75-0.69 0.01-1.25 1.14-1.25 2.52 0 1.49-1.38 3.91-3.4 6l-3.4 3.5c-19.8 0.07-22.11-0.23-24.02-1.71-1.91-1.48-2.5-3.29-3.34-10.29-0.58-4.77-0.88-22.04-0.69-39.34l0.35-30.84c3.87-3.03 6.01-3.89 7.25-3.87 1.24 0.03 2.25-0.29 2.25-0.7 0-0.42-6.85-0.77-15.22-0.78-8.38-0.02-15.13 0.32-15 0.75zm68.02-0.02c0.11 0.44 1.21 0.78 2.45 0.75 1.24-0.02 3.37 0.84 4.75 1.91l2.5 1.96c0 68.4-0.35 81.28-1.13 82.68-0.62 1.1-2.64 2.33-4.5 2.73-1.85 0.41-3.15 0.91-2.87 1.12 0.27 0.21 11.75 0.69 25.5 1.08 23.3 0.66 25.15 0.59 27.24-1.11 1.78-1.45 2.4-3.33 3-9.08 0.49-4.68 0.4-7.27-0.24-7.28-0.55 0-1.34 1.35-1.75 3.01-0.41 1.66-2.07 4.38-3.68 6.03-2.88 2.96-3.06 3-13.75 3.04-8.9 0.03-11.25-0.28-13.21-1.75-2.22-1.67-2.44-2.74-3.3-15.79-0.5-7.7-0.78-25.32-0.61-39.15 0.28-23.54 0.43-25.29 2.3-27.28 1.22-1.31 3.17-2.12 5-2.08 1.65 0.03 2.62-0.29 2.16-0.72-0.45-0.42-7.41-0.8-15.45-0.82-8.04-0.03-14.52 0.31-14.41 0.75zm126.75 2.8c-0.3 1.1 0.12 3.12 0.95 4.5 1.38 2.29 1.3 2.92-0.96 7.75-1.41 3.01-5.23 8.02-8.97 11.75-6.19 6.18-6.59 6.41-8.29 4.77-1.03-0.99-3.37-1.73-5.53-1.75-2.06-0.01-5.44 0.82-7.5 1.86-2.06 1.03-5.75 4.07-8.2 6.75-2.45 2.68-5.32 6.89-6.38 9.37-1.06 2.47-2.14 6.75-2.41 9.5-0.26 2.75 0.06 7.02 0.73 9.5 0.76 2.81 2.58 5.81 4.86 8.02 2.01 1.93 5.67 4.12 8.15 4.85 2.47 0.73 6.97 1.14 10 0.91 3.16-0.25 8.21-1.67 11.88-3.36 4.04-1.85 7.99-4.67 10.75-7.67 2.4-2.62 5.79-7.79 7.54-11.5 2.17-4.64 3.31-8.79 3.64-13.25l0.47-6.5 7.22 8.35c7.75-2.44 10.67-3.46 11.5-3.85 0.82-0.39 1.95-1.88 2.5-3.3 0.71-1.85 0.64-3.33-0.25-5.15-0.87-1.77-1.94-2.48-3.5-2.3-1.9 0.21-2.29 0.92-2.5 4.5-0.19 3.27-0.66 4.25-2 4.28-0.96 0.02-3.78-1.71-6.25-3.85-2.48-2.13-5.51-4.39-6.75-5.03-1.24-0.63-3.49-1.15-5-1.14-1.51 0.01-4.77 0.92-7.24 2.03-2.93 1.32-5.27 3.32-6.72 5.74-1.23 2.04-2.52 5.07-2.86 6.72-0.41 1.93-0.15 3.45 0.72 4.28 0.74 0.7 2.47 1.15 3.85 1 2.35-0.27 2.5-0.63 2.5-6.16 0-5.24 0.3-6.1 2.77-8 2.29-1.76 3.23-1.95 5.5-1.08 2.59 1 2.72 1.36 2.51 7-0.16 4.45-1.09 7.73-3.64 12.96-2.07 4.24-5.16 8.57-7.85 11-2.43 2.2-6.19 4.87-8.36 5.94-2.38 1.18-6.1 1.97-9.43 2-3.72 0.04-6.8-0.62-9.5-2.03-2.37-1.24-4.92-3.69-6.24-6-1.22-2.15-2.25-5.26-2.28-6.91-0.05-2.64 1.02-3.81 8.73-9.56 4.83-3.61 12.84-9.95 17.79-14.1 4.95-4.14 10.96-9.74 13.35-12.44 2.39-2.7 5.15-6.48 6.13-8.4 0.97-1.93 2.05-4.97 2.4-6.75 0.34-1.79 0.17-4.15-0.38-5.25-0.66-1.33-2-2-3.95-2-2.09 0-3.1 0.57-3.5 2zm-32.03 34.19c2.03-1.82 4.39-3.17 5.23-3 0.84 0.17 1.87 1.21 2.3 2.31 0.43 1.1 0.48 2.49 0.11 3.09-0.36 0.6-4.04 3.65-8.16 6.78-4.13 3.12-7.73 5.45-8 5.17-0.28-0.28 0.69-2.88 2.16-5.78 1.46-2.9 4.32-6.75 6.36-8.57zm45.48 81.72c-3.58 0.41-8.98 1.48-12 2.38-3.03 0.89-8.2 3.25-11.5 5.23-3.3 1.98-7.49 5.04-9.32 6.79-1.82 1.75-4.95 5.66-6.94 8.69-2 3.02-4.75 8.65-6.11 12.5-2.07 5.87-2.48 8.93-2.55 19-0.06 9.31 0.34 13.22 1.81 17.5 1.04 3.02 3.13 7.97 4.66 11 1.52 3.02 4.31 7.3 6.19 9.5 1.88 2.2 6.08 5.78 9.34 7.96 3.25 2.18 9.74 5.32 14.42 6.98 8.18 2.92 9.13 3.03 25.5 3.04 14.9 0.01 17.8-0.26 23.5-2.19 3.57-1.21 7.01-2.78 7.63-3.5 0.75-0.84 1.27-8.45 1.5-21.94 0.34-18.98 0.53-20.81 2.37-22.78 1.13-1.21 3.19-2.13 4.75-2.11 1.51 0.02 2.75-0.41 2.75-0.96 0-0.63-6.34-1-17-1-10.67 0-17 0.37-17 1 0 0.55 1.46 0.98 3.25 0.95 1.79-0.02 4.37 0.84 5.75 1.91l2.5 1.96v38.45c-4.42 3.43-7.23 4.02-14.5 4.45-7.01 0.42-11.34 0.13-16.5-1.09-3.85-0.91-9.7-3.26-13-5.21-3.3-1.95-7.52-4.99-9.38-6.74-1.86-1.75-5.15-5.88-7.3-9.18-2.15-3.3-4.98-9.38-6.29-13.5-1.31-4.13-2.68-10.88-3.04-15-0.48-5.35-0.21-9.66 0.94-15 0.89-4.13 2.84-10.16 4.34-13.41 1.82-3.95 4.55-7.54 8.23-10.82 3.02-2.71 7.97-5.9 11-7.09 4.77-1.89 7.42-2.17 20-2.15 12.98 0.03 15.12 0.29 20.5 2.46 3.3 1.33 7.3 3.57 8.88 4.96 1.59 1.4 3.44 3.67 4.12 5.05 0.68 1.37 1.54 4.3 1.91 6.5 0.4 2.34 1.02 3.58 1.51 3 0.47-0.55 1.12-6.29 1.46-12.75l0.62-11.75c-4.26-0.01-9.1-0.64-13.5-1.42-4.4-0.78-12.28-1.64-17.5-1.92-5.23-0.27-12.43-0.16-16 0.25zm101.55 18.34c-0.75 1.78-6.6 18.1-13.01 36.25-6.4 18.15-12.85 36.15-14.31 40-1.47 3.85-3.7 8.23-4.95 9.75-1.42 1.71-3.77 3.03-6.22 3.5-2.16 0.41-3.78 0.97-3.59 1.25 0.19 0.27 5.97 0.5 12.85 0.5 6.88 0 12.84-0.34 13.26-0.75 0.41-0.42-0.11-0.74-1.17-0.72-1.05 0.02-2.69-0.77-3.65-1.75-1.48-1.52-1.59-2.53-0.77-6.78 0.54-2.75 2.47-9.28 4.29-14.5 1.82-5.23 3.63-10.07 4.02-10.75 0.5-0.9 4.42-1.26 13.95-1.29l13.25-0.03c11.57 29.34 12.74 33.25 11.82 34.27-0.96 1.05 1.01 1.44 10.5 2.09 6.42 0.43 12.02 0.43 12.44 0 0.42-0.44-1.27-1.36-3.75-2.04-2.89-0.8-5.2-2.25-6.42-4-1.06-1.52-2.9-5-4.1-7.75-1.2-2.75-7.11-17.83-13.12-33.5-6.02-15.68-12.5-32.67-14.4-37.75-1.91-5.09-3.94-9.25-4.51-9.25-0.58 0-1.66 1.46-2.41 3.25zm-5.79 32.5c3.09-9.22 6.03-16.75 6.53-16.75 0.51 0 3.36 7.53 6.34 16.75 2.97 9.21 5.4 17.08 5.39 17.5-0.01 0.41-5.08 0.76-11.27 0.77-6.19 0.02-11.55-0.32-11.92-0.75-0.37-0.42 1.85-8.31 4.93-17.52zm46.44-34.46c-0.5 0.66-1.43 3.91-2.06 7.21-0.64 3.3-1.16 6.33-1.15 6.75 0 0.41 0.35 0.76 0.76 0.79 0.41 0.02 1.42-1.39 2.25-3.14 0.82-1.74 2.4-3.65 3.5-4.24 1.1-0.58 7.74-1.2 14.75-1.36l12.75-0.3c-0.09 58.51-0.43 77.3-0.82 79.5-0.56 3.25-1.34 4.32-4.19 5.74-1.92 0.97-3.27 1.79-2.99 1.83 0.27 0.04 6.95 0.16 14.84 0.25 7.89 0.1 14.53-0.16 14.75-0.57 0.23-0.42-1.47-1.09-3.75-1.5-2.8-0.51-4.69-1.56-5.75-3.21-1.37-2.11-1.64-8.03-1.95-42.5l-0.36-40.04c19.11 0.91 24.81 1.69 26.53 2.56 1.55 0.79 3.08 2.56 3.39 3.94 0.32 1.37 0.82 2.95 1.11 3.5 0.3 0.55 0.88 0.1 1.3-1 0.41-1.1 0.78-4.7 0.82-8l0.07-6c-51.54 0-67.94-0.32-69.7-0.71-2.09-0.46-3.51-0.29-4.1 0.5zm178.15 0.49c-2.83 0.94-6.58 3.07-8.34 4.72-1.75 1.65-3.78 4.12-4.5 5.5-0.72 1.37-1.63 4.52-2.02 7-0.49 3.07-0.18 6.39 0.96 10.5 1.59 5.7 2.39 6.7 16 20 7.88 7.7 15.11 15.57 16.06 17.5 1.22 2.46 1.63 5.17 1.36 9.16-0.24 3.68-1.1 6.66-2.44 8.5-1.14 1.56-3.62 3.65-5.5 4.64-2.55 1.34-5.16 1.72-10.1 1.5-4.75-0.22-7.46-0.88-9.38-2.3-1.49-1.1-3.57-3.13-4.62-4.5-1.05-1.38-2.23-4.41-2.62-6.74-0.39-2.32-1.05-3.9-1.45-3.5-0.41 0.41-0.86 4.52-1 9.16l-0.26 8.41c6.2 3.65 9.17 4.2 16.5 4.47 8.89 0.33 9.88 0.16 15.5-2.63 3.41-1.7 7.18-4.53 8.75-6.58 1.51-1.98 3.43-5.51 4.27-7.84 0.83-2.34 1.52-6.28 1.52-8.75 0-2.48-0.69-6.42-1.52-8.75-0.84-2.34-2.76-5.89-4.27-7.89-1.51-2-8.12-8.41-14.68-14.25-8.96-7.97-12.41-11.73-13.86-15.11-1.39-3.24-1.73-5.49-1.21-8 0.4-1.93 1.33-4.54 2.08-5.81 0.75-1.26 2.84-3.02 4.64-3.9 1.83-0.9 5.71-1.6 8.78-1.59 3.29 0.02 7.07 0.79 9.41 1.91 2.15 1.04 4.26 2.79 4.68 3.89 0.42 1.1 1.03 3.23 1.34 4.75 0.31 1.51 1.02 2.75 1.57 2.75 0.58 0 1-3.34 1-8v-8c-7.75-1.55-12.59-1.99-15.75-1.97-3.16 0.02-8.07 0.8-10.9 1.75zm112.15-0.25c-2.2 0.8-5.92 3.37-8.25 5.71-2.34 2.34-5.33 6.28-6.65 8.76-1.32 2.47-3.23 7.07-4.25 10.22l-1.85 5.73c-7.88 0.48-9.05 0.98-9.24 2.3-0.21 1.41 0.5 1.75 3.74 1.75 2.2 0 3.99 0.33 3.97 0.75-0.01 0.41-2.92 12.45-6.46 26.75-3.8 15.34-7.21 27.02-8.32 28.5-1.04 1.37-2.75 2.63-3.79 2.8-1.05 0.16-3.03-0.86-4.4-2.28-1.38-1.42-3.06-2.56-3.75-2.55-0.69 0.01-1.54 1.26-1.89 2.78-0.5 2.16-0.13 3.12 1.75 4.54 1.31 0.98 3.29 1.76 4.39 1.73 1.1-0.04 3.91-0.96 6.25-2.05 2.54-1.18 5.21-3.48 6.63-5.72 1.32-2.07 3.14-5.78 4.05-8.25 0.92-2.48 4.25-13.95 7.41-25.5l5.75-21c10.39-0.39 13.41-0.95 13.41-1.5 0-0.55 0.11-1.34 0.25-1.75 0.14-0.42-2.53-0.98-5.92-1.25l-6.17-0.5c4.45-13.95 7.16-19.93 8.91-22.29 1.74-2.36 4.35-4.73 5.8-5.27 1.91-0.71 3.17-0.61 4.63 0.38 1.1 0.74 2.46 2.89 3.04 4.76 0.57 1.88 1.66 3.42 2.42 3.42 0.77 0 1.93-1.35 2.6-3 0.77-1.93 0.89-3.81 0.32-5.25-0.49-1.24-2.01-2.7-3.38-3.25-1.38-0.55-3.51-0.98-4.75-0.96-1.24 0.02-4.05 0.7-6.25 1.49zm222-0.88c-1.1 0.23-3.13 0.64-4.5 0.91-2.37 0.45-2.41 0.57-0.78 2.21 0.95 0.95 1.74 2.4 1.75 3.23 0.02 0.82-1.77 7.01-3.97 13.75-3.72 11.39-4.14 12.18-6 11.25-1.1-0.55-3.24-0.99-4.75-0.98-1.51 0.01-4.78 0.96-7.25 2.1-2.48 1.15-7.01 4.62-10.07 7.73-3.09 3.13-7.01 8.54-8.81 12.15-2.18 4.39-3.3 8.15-3.43 11.59-0.13 3.34 0.32 5.68 1.31 6.79 0.93 1.06 2.93 1.69 5.25 1.66 2.06-0.02 4.99-0.66 6.5-1.42 1.51-0.75 5.86-4.69 9.67-8.75 3.8-4.05 6.57-6.47 6.14-5.37-0.42 1.1-1.43 3.8-2.23 6-0.79 2.2-1.31 5.12-1.14 6.5 0.24 1.96 0.95 2.56 3.31 2.78 2.01 0.2 4.28-0.62 6.92-2.5 2.16-1.53 5.19-4.58 6.73-6.78 1.55-2.2 2.61-4.23 2.36-4.5-0.25-0.28-2.61 1.42-5.23 3.78-2.63 2.36-5.34 4.27-6.03 4.25-0.87-0.02-1.07-1.04-0.65-3.28 0.34-1.79 3.45-11.8 6.92-22.25 3.46-10.45 8.15-23.95 10.41-30 2.26-6.05 4.1-11.12 4.09-11.25-0.01-0.14-1.03-0.2-2.27-0.14-1.24 0.07-3.15 0.31-4.25 0.54zm-26.38 40.14c3.64-3.74 7.24-6.8 8-6.81 0.76-0.01 1.95 0.55 2.64 1.25 0.7 0.7 1.27 2.39 1.27 3.77 0.01 1.37-1.46 5.42-3.25 9-1.98 3.94-5.82 9.07-9.77 13.05-3.58 3.61-7.97 7.1-9.76 7.75-2.84 1.04-3.33 0.97-3.88-0.55-0.35-0.97-0.35-3.1-0.01-4.75 0.34-1.65 2.31-5.91 4.38-9.46 2.07-3.56 6.74-9.52 10.38-13.25zm-399.12-38.54c0 0.41 1.69 1.1 3.75 1.54 2.47 0.52 4.18 1.62 5.03 3.25 1 1.9 1.22 11.32 1 42.05-0.24 33.51-0.51 39.86-1.78 41.28-0.83 0.93-2.85 1.92-4.5 2.21-1.65 0.3-2.78 0.75-2.5 1 0.27 0.26 11.19 0.68 24.25 0.94 20.21 0.41 23.97 0.25 25.25-1.02 0.82-0.83 1.77-3.87 2.1-6.75 0.33-2.89 0.4-6.15 0.15-7.25l-0.44-2c-1.16 3.1-2.02 5.29-2.66 6.88-0.63 1.58-2.05 3.34-3.15 3.91-1.1 0.56-6.38 1.06-11.73 1.11-8.84 0.09-9.92-0.11-12-2.18-2.18-2.18-2.28-3.02-2.52-20.75l-0.25-18.47c17.73-0.02 21.11 0.39 22.75 1.49q2.25 1.51 2.25 4.51c0 1.65 0.34 3 0.75 3 0.41 0.01 1.2-3.86 1.75-8.58 0.55-4.72 0.77-8.76 0.5-8.97-0.28-0.22-1.4 0.27-2.5 1.09-1.5 1.1-4.96 1.47-13.75 1.46h-11.75l0.5-35.5c15.5 0.45 21.12 1.13 22.5 1.8 1.6 0.78 2.86 2.56 3.5 4.97 0.55 2.07 1.34 3.75 1.75 3.74 0.41-0.01 0.75-1.93 0.76-4.26 0-2.34 0.27-5.83 0.59-7.75l0.58-3.5c-38.89 0-50.18 0.33-50.18 0.75zm547.32 5.94c-0.56 0.72-1.31 2.09-1.67 3.06-0.36 0.96-0.2 2.65 0.35 3.75 0.55 1.1 1.9 2 3 2 1.1 0 2.69-1.02 3.54-2.25 0.84-1.24 1.41-3.38 1.25-4.75-0.22-1.85-0.96-2.58-2.88-2.81-1.42-0.16-3.04 0.29-3.59 1zm-41.59 19.81c-2.54 4.65-3.04 5.03-7.23 5.5-3.11 0.34-4.5 0.96-4.5 2 0 1.04 1.05 1.5 3.5 1.5 2.3 0 3.39 0.42 3.18 1.25-0.17 0.68-2.49 8-5.15 16.25-2.76 8.54-4.56 15.75-4.19 16.75 0.36 0.96 1.67 1.75 2.91 1.76 1.24 0.01 4.27-1.27 6.75-2.83 2.47-1.57 6.19-4.72 8.25-7.02 2.06-2.29 3.52-4.61 3.25-5.16-0.28-0.55-2.98 1.02-6 3.5-3.03 2.47-5.95 4.5-6.5 4.5-0.55 0-1-0.57-1-1.25 0-0.69 2.14-7.23 4.75-14.54l4.75-13.28c10.84 0.06 11.5-0.16 11.5-1.93 0-1.74-0.67-2-5-2-4.68 0-4.97-0.15-4.48-2.25 0.29-1.24 0.65-3.49 0.8-5 0.19-1.95-0.18-2.75-1.29-2.75-0.86 0-2.79 2.25-4.3 5zm-35.21 3c-1.29 2.53-1.83 2.84-3.52 2-1.1-0.55-2.79-0.99-3.75-0.98-0.96 0.01-3.71 1.03-6.11 2.25-2.39 1.22-6.4 4.25-8.91 6.73-2.51 2.47-5.98 6.75-7.72 9.5-1.74 2.75-3.92 6.91-4.84 9.25-0.92 2.33-1.68 5.71-1.69 7.5-0.01 1.78 0.55 3.82 1.25 4.51 0.7 0.7 2.39 1.26 3.77 1.26 1.37-0.01 4.3-1.2 6.5-2.65 2.2-1.45 6.37-4.94 9.27-7.76l5.28-5.11c-3.44 9.33-4.11 12.77-3.73 13.75 0.42 1.07 1.73 1.74 3.43 1.74 1.51 0 4.77-1.4 7.25-3.1 2.47-1.7 5.29-4.17 6.25-5.49 0.96-1.32 1.54-2.74 1.29-3.15-0.25-0.42-1.72 0.39-3.25 1.8-1.54 1.4-3.92 2.89-5.29 3.31-1.38 0.42-2.64 0.62-2.81 0.45-0.16-0.17 2.68-8.41 6.32-18.31 3.64-9.9 6.36-18.57 6.05-19.25-0.31-0.69-1.23-1.25-2.04-1.25-0.82 0-2.17 1.35-3 3zm-16.06 9.18c3.44-3.19 5.32-4.23 7.24-4 1.43 0.17 3.09 1.09 3.7 2.04 0.87 1.36 0.44 3.04-2.04 8-1.72 3.45-4.92 8.53-7.11 11.28-2.2 2.75-5.85 6.23-8.12 7.75-2.3 1.53-4.64 2.41-5.28 2-0.72-0.48-0.92-2.23-0.54-4.75 0.33-2.2 2.15-7.15 4.05-11 2.07-4.2 5.32-8.73 8.1-11.32zm-224.96-7.53c-1.65 0.87-4.73 3.21-6.84 5.21-2.11 2-5.24 6.34-6.96 9.64-2.64 5.08-3.12 7.12-3.16 13.33-0.04 6.77 0.17 7.52 2.71 9.75 1.97 1.74 3.94 2.42 7 2.43 2.96 0.01 5.61-0.85 8.75-2.82 2.47-1.56 5.83-4.61 7.45-6.77 1.62-2.16 4.08-6.4 5.45-9.42 1.73-3.79 2.52-7.32 2.55-11.33 0.04-5.34-0.23-6.08-3.2-8.75-2.4-2.16-4.23-2.91-7-2.88-2.06 0.02-5.1 0.74-6.75 1.61zm1.83 3.71c1.56-1.3 3.7-2.36 4.75-2.36 1.06 0 2.43 1.01 3.05 2.25 0.87 1.74 0.75 3.83-0.53 9.25-0.92 3.85-2.7 9.25-3.96 12-1.26 2.75-3.72 6.68-5.46 8.75-1.92 2.25-4.08 3.75-5.43 3.76-1.24 0.01-2.82-0.55-3.52-1.25-0.7-0.69-1.26-2.84-1.26-4.76 0-1.93 0.93-6.2 2.06-9.5 1.14-3.3 3.28-8.2 4.77-10.89 1.48-2.69 3.97-5.95 5.53-7.25zm42.74-3.59c-1.89 0.95-5.37 3.41-7.75 5.48-2.38 2.06-4.32 4.2-4.32 4.75 0 0.55 0.45 1 1 1 0.55 0 2.8-1.47 5-3.25 2.2-1.79 4.22-2.92 4.5-2.5 0.27 0.41-1.78 7.16-4.56 15-2.78 7.83-4.92 15.37-4.75 16.75 0.24 1.96 0.95 2.56 3.31 2.78 2.02 0.2 4.27-0.62 6.9-2.5 2.15-1.53 7-6.16 10.79-10.28l6.89-7.5c-4.87 13.95-6.01 18.56-5.68 19.25 0.33 0.68 1.61 1.25 2.85 1.26 1.24 0.01 4.27-1.28 6.75-2.87 2.47-1.58 5.74-4.29 7.25-6.01 1.51-1.72 2.52-3.58 2.25-4.13-0.28-0.56-1.74 0.06-3.25 1.37-1.51 1.3-3.99 3.1-5.5 4-2.39 1.41-2.75 1.43-2.75 0.13 0-0.83 2.47-8.03 5.5-16 3.02-7.98 5.5-15.18 5.5-16 0-0.83-0.68-1.73-1.5-2-0.83-0.28-1.84-0.34-2.25-0.15-0.41 0.2-2.71 3.91-5.09 8.25-2.39 4.34-6.89 11-10 14.8-3.12 3.79-7.01 7.94-8.66 9.22-1.65 1.27-3.56 2.33-4.25 2.35-0.69 0.01-1.25-0.54-1.25-1.22-0.01-0.69 2.51-8 5.58-16.25 3.07-8.25 5.33-15.57 5-16.25-0.32-0.69-1.37-1.24-2.33-1.23-0.96 0.01-3.29 0.8-5.18 1.75zm57.93-0.63c-1.38 0.56-4.19 2.33-6.25 3.94-2.06 1.6-3.75 3.59-3.75 4.42 0 0.82 0.22 1.5 0.5 1.5 0.27 0 2.19-1.13 4.25-2.51 2.06-1.38 4.31-2.5 5-2.5 0.69 0 1.25 0.23 1.25 0.51 0 0.27-2.71 8.03-6.02 17.25-3.31 9.21-6.01 17.08-6 17.5 0.01 0.41 1.14 0.75 2.52 0.75 2.1 0 3.08-1.16 6.13-7.25 2-3.99 5.07-9.5 6.82-12.25 1.75-2.75 6.07-8.06 9.61-11.8 3.54-3.74 7.23-6.78 8.19-6.75 1.07 0.03 1.75 0.82 1.75 2.05 0 1.1-2.71 8.86-6.02 17.25-3.3 8.38-6 16.03-6 17 0.01 1.3 0.85 1.75 3.27 1.77 1.92 0.01 5.09-1.17 7.75-2.89 2.47-1.6 5.29-4.09 6.25-5.52 0.96-1.44 1.52-2.84 1.25-3.11-0.28-0.28-2.52 0.96-4.98 2.75-2.47 1.78-4.71 3.02-4.98 2.75-0.27-0.28 1.98-6.69 4.99-14.25 3.01-7.57 5.47-14.88 5.47-16.25 0-1.38-0.68-3.18-1.5-4-0.83-0.83-2.74-1.51-4.25-1.52-1.51-0.01-4.89 1.34-7.5 3-2.61 1.66-7.11 5.9-10 9.44-2.89 3.53-5.35 6.34-5.48 6.25-0.12-0.1 1.13-3.77 2.79-8.17 1.66-4.4 2.78-8.57 2.48-9.25-0.3-0.69-1.55-1.23-2.79-1.19-1.24 0.03-3.38 0.52-4.75 1.08zm208.5 1.75c-2.75 1.58-5.9 3.83-7 5-1.1 1.16-1.66 2.34-1.25 2.61 0.41 0.27 2.44-0.61 4.5-1.96 2.06-1.35 4.09-2.25 4.5-2 0.41 0.25-0.66 3.72-2.39 7.71-1.72 3.98-4.65 10.85-6.5 15.25-1.86 4.4-3.37 9.01-3.37 10.25 0.01 1.73 0.58 2.25 2.51 2.25 1.37 0 3.96-0.75 5.75-1.65 1.79-0.91 4.77-2.82 6.62-4.25 1.85-1.43 3.77-3.39 4.25-4.35 0.48-0.97 0.65-1.98 0.38-2.25-0.28-0.28-2.41 1.08-4.75 3.02-2.34 1.93-4.81 3.51-5.5 3.5-0.69-0.01-1.26-0.36-1.27-0.77-0.02-0.42 2.97-7.73 6.62-16.25 4.03-9.4 6.4-16.19 6.02-17.25-0.34-0.97-1.41-1.75-2.37-1.75-0.96 0.01-4 1.31-6.75 2.89zm43.59-0.64c-2.43 1.23-5.77 3.82-7.43 5.75-1.65 1.92-4.27 6.2-5.82 9.5-1.55 3.3-3.1 7.8-3.44 10-0.35 2.2-0.13 5.68 0.48 7.75 0.62 2.06 2.13 4.42 3.37 5.25 1.24 0.83 3.94 1.51 6 1.5 2.06 0 5.39-0.79 7.4-1.75 2-0.97 5.47-3.78 7.7-6.25 2.23-2.48 5.08-6.75 6.34-9.5 1.26-2.75 2.58-7.25 2.93-10 0.47-3.59 0.2-5.99-0.95-8.5-0.88-1.93-2.74-4.07-4.13-4.75-1.4-0.69-3.78-1.25-5.29-1.25-1.51 0-4.74 1.01-7.16 2.25zm0.98 4.5c2-2.07 4.59-3.75 5.78-3.75 1.23 0 2.63 0.96 3.28 2.25 0.66 1.31 0.87 4.01 0.5 6.5-0.35 2.33-1.99 7.73-3.64 12-1.94 4.99-4.34 9.09-6.75 11.51-2.14 2.16-4.7 3.76-5.99 3.75-1.32-0.01-2.72-0.94-3.38-2.26-0.66-1.32-0.87-4.02-0.5-6.5 0.34-2.34 2.08-7.74 3.86-12 1.83-4.4 4.79-9.38 6.84-11.5zm42.43-5.37c-1.65 0.73-4.46 2.51-6.25 3.97-1.79 1.45-3.25 3.32-3.25 4.15 0 0.82 0.22 1.5 0.5 1.5 0.27 0 1.96-1.12 3.75-2.48 1.79-1.36 4.04-2.48 5-2.5 0.96-0.01 1.75 0.31 1.74 0.73 0 0.41-2.71 7.95-6.02 16.75-3.31 8.8-6.01 16.56-6 17.25 0.02 0.68 1.04 1.23 2.28 1.21 1.8-0.02 3.36-2.04 7.89-10.25 3.1-5.62 7.83-13.1 10.5-16.63 2.67-3.53 6.43-7.47 8.36-8.75 1.92-1.29 4.06-2.34 4.75-2.34 0.69 0 1.25 0.91 1.25 2.01 0 1.1-2.7 8.86-6 17.25-3.31 8.38-6.01 16.03-6 17 0 1.3 0.83 1.75 3.25 1.76 1.91 0.01 5.2-1.22 8-3 2.61-1.66 5.54-4.15 6.5-5.54 0.96-1.39 1.41-2.74 1-3-0.41-0.26-2.44 0.88-4.5 2.53-2.06 1.66-4.31 3.01-5 3-0.69 0-1.26-0.12-1.26-0.25-0.01-0.14 2.47-6.33 5.49-13.75 3.03-7.43 5.5-14.97 5.51-16.75 0.01-2.26-0.6-3.56-1.99-4.25-1.1-0.55-3.01-1.01-4.25-1.03-1.24-0.01-4.48 1.45-7.19 3.25-2.72 1.8-7.22 6.1-10 9.55-2.79 3.45-5.17 6.26-5.31 6.25-0.14-0.01 0.91-3.06 2.34-6.77 1.42-3.72 2.77-7.09 3-7.5 0.22-0.42 0.18-1.65-0.09-2.75-0.32-1.28-1.32-1.99-2.75-1.97-1.24 0.03-3.6 0.63-5.25 1.35z"/>
</svg>