<svg width="471" height="874" viewBox="0 0 471 874" fill="none" xmlns="http://www.w3.org/2000/svg">
<path d="M202.089 879.036C202.089 879.036 502.322 309.148 451.087 125.6C445.425 99.6308 434.198 75.1901 418.18 53.9614C402.161 32.7326 381.731 15.2203 358.298 2.63113C334.398 -10.2315 308.102 -18.0213 281.059 -20.2493C254.016 -22.4773 226.812 -19.0953 201.153 -10.3156C174.637 -4.62091 149.592 6.49087 127.591 22.3223C105.589 38.1537 87.1063 58.363 73.3017 81.6815C59.7519 104.546 51.3308 130.082 48.6191 156.527C45.9074 182.973 48.9697 209.699 57.5948 234.861C108.829 418.41 661.148 751.626 661.148 751.626" stroke="white" stroke-width="95.2824" stroke-linecap="round" stroke-linejoin="round"/>
</svg>
