<svg width="48" height="48" viewBox="0 0 48 48" fill="none" xmlns="http://www.w3.org/2000/svg">
<path d="M0 42V24V6C0 2.68629 2.68629 0 6 0H42C45.3137 0 48 2.68629 48 6V42C48 45.3137 45.3137 48 42 48H6C2.68629 48 0 45.3137 0 42Z" fill="#1FBA9B"/>
<path d="M23.4993 9.32766C23.5449 9.24579 23.6637 9.13553 23.7634 9.08271C23.8631 9.02989 24.0268 8.98499 24.1265 8.98367C24.2262 8.98235 24.3972 9.02527 24.5062 9.08007C24.6151 9.13421 24.7492 9.26824 24.8033 9.37718C24.8812 9.53234 24.9023 9.84662 24.9023 12.0842L28.6162 12.0835C32.1492 12.0829 32.3559 12.0895 32.8583 12.2182C33.1488 12.2928 33.5503 12.4473 33.7497 12.5609C33.9491 12.6745 34.3214 12.9775 34.5756 13.2343C34.9038 13.5658 35.1091 13.8464 35.2788 14.197C35.4108 14.469 35.5587 14.8553 35.6083 15.0553C35.6802 15.3498 35.6974 16.8301 35.6974 22.8792C35.6974 29.9716 35.6914 30.3598 35.5746 30.7362C35.5066 30.9541 35.3435 31.3403 35.2114 31.5945C35.0721 31.8626 34.8054 32.2244 34.575 32.4555C34.3571 32.6753 33.9854 32.9639 33.7497 33.0972C33.5139 33.2306 33.0828 33.4003 32.7923 33.4742C32.3083 33.5984 32.0706 33.6096 27.6424 33.605L26.1568 35.826C25.1519 37.3274 24.6125 38.0762 24.4897 38.1382C24.39 38.1884 24.2262 38.2307 24.1265 38.232C24.0268 38.2326 23.8479 38.166 23.7297 38.0834C23.5937 37.9877 22.9942 37.1465 20.6708 33.6413L18.1817 33.6063C15.8596 33.5733 15.6628 33.5614 15.2627 33.428C15.027 33.3494 14.6111 33.1408 14.3384 32.9639C14.0664 32.7869 13.7151 32.4957 13.558 32.3162C13.4008 32.1372 13.1981 31.8573 13.107 31.6935C13.0159 31.5298 12.8621 31.1733 12.5887 30.4061V15.2204L12.7564 14.7582C12.8489 14.504 13.0007 14.162 13.0945 13.9989C13.1889 13.8352 13.4127 13.5381 13.593 13.3387C13.7732 13.1386 14.0961 12.858 14.3113 12.7147C14.5259 12.5715 14.9095 12.378 15.6259 12.1172L23.3508 12.0512L23.3838 10.7637C23.4056 9.91462 23.4452 9.42538 23.4993 9.32766Z" fill="#F5FCFB"/>
<path d="M8.11686 16.9892C8.17959 16.9093 8.33541 16.7997 8.46217 16.7455C8.58894 16.6921 8.76721 16.6657 8.85832 16.6861C8.94878 16.7072 9.07554 16.7495 9.13893 16.7812C9.20231 16.8122 9.31389 16.9344 9.38652 17.0526C9.51329 17.2592 9.51791 17.3853 9.51857 20.4858C9.51857 23.416 9.50801 23.7263 9.40303 23.9449C9.33964 24.0769 9.20561 24.2255 9.10591 24.275C9.00622 24.3245 8.82069 24.3648 8.69326 24.3648C8.51697 24.3648 8.40737 24.31 8 23.9026L8.00132 20.5189C8.00264 17.4144 8.01254 17.1232 8.11686 16.9892Z" fill="#F5FCFB"/>
<path d="M38.8666 17.1021C38.9214 16.9931 39.0323 16.8591 39.1142 16.8043C39.196 16.7495 39.3961 16.7059 39.5598 16.7066C39.7407 16.7079 39.9124 16.7535 39.9976 16.8228C40.0755 16.8855 40.1719 17.0037 40.2122 17.0856C40.2637 17.1892 40.2861 18.2456 40.2861 23.9026L40.1045 24.1047C39.9798 24.244 39.8404 24.3186 39.6589 24.3443C39.4898 24.3681 39.3235 24.3457 39.1967 24.2829C39.0878 24.2288 38.9465 24.0769 38.8831 23.9449C38.7781 23.7263 38.7675 23.4167 38.7675 20.5024C38.7675 17.7881 38.7827 17.2698 38.8666 17.1021Z" fill="#F5FCFB"/>
<path d="M15.0063 14.1151C15.1292 14.0154 15.4078 13.8596 15.6257 13.7691L16.0218 13.6047L32.3986 13.6358L32.8264 13.8431C33.0985 13.9758 33.3573 14.1679 33.5375 14.3713C33.694 14.5482 33.8868 14.8255 34.1126 15.2864L34.1456 25.8834H14.1401V20.7004C14.1401 15.6713 14.1441 15.5062 14.2735 15.1378C14.3468 14.9292 14.4914 14.6545 14.595 14.5271C14.6987 14.3997 14.8835 14.2141 15.0063 14.1151Z" fill="#1FBA9B"/>
<path d="M14.319 30.7032C14.1843 30.4285 14.1718 30.2938 14.152 28.937L14.1309 27.468H34.1456L34.1463 28.7719C34.1469 29.7854 34.1232 30.1571 34.0393 30.4391C33.9805 30.6391 33.8465 30.9283 33.7415 31.0828C33.6372 31.2373 33.4101 31.4664 33.2378 31.5925C33.0654 31.7186 32.7908 31.8731 32.627 31.9359C32.3689 32.0349 31.9714 32.0547 26.8934 32.1227L26.7205 32.2878C26.6254 32.3789 26.0067 33.2629 25.3452 34.2533C24.6836 35.2437 24.1244 36.0314 24.1013 36.003C24.0788 35.9752 23.5255 35.1499 22.8725 34.1695C22.2196 33.189 21.6187 32.3274 21.5369 32.2547C21.3956 32.1286 21.2708 32.1214 15.8898 32.0567L15.4335 31.8256C15.1523 31.683 14.8789 31.4809 14.7211 31.2974C14.5798 31.1343 14.3989 30.8669 14.319 30.7032Z" fill="#1FBA9B"/>
<path d="M18.4749 19.4004C18.5779 19.302 18.7661 19.1772 18.8935 19.1217C19.0209 19.0669 19.2956 19.0207 19.5042 19.0194C19.7129 19.0181 19.9955 19.063 20.1315 19.1191C20.2675 19.1752 20.4768 19.3165 20.5956 19.4327C20.7151 19.5489 20.871 19.7998 20.9423 19.9906C21.0142 20.1814 21.073 20.4191 21.0737 20.5188C21.0743 20.6185 21.0281 20.8344 20.9713 20.9975C20.9139 21.1606 20.7997 21.3837 20.7178 21.4927C20.6352 21.6016 20.4068 21.7726 20.2094 21.873C19.9578 22.0011 19.7525 22.0552 19.5208 22.0539C19.3141 22.0532 19.0672 21.9945 18.8605 21.8968C18.6789 21.8116 18.465 21.6703 18.3858 21.5838C18.3059 21.4973 18.1758 21.2781 18.0959 21.0965C17.9863 20.8463 17.9599 20.6865 17.9857 20.4363C18.0042 20.2547 18.0794 19.9873 18.1534 19.8421C18.2267 19.6968 18.3719 19.4981 18.4749 19.4004Z" fill="#F5FCFB"/>
<path d="M27.5923 19.5502C27.7283 19.3891 27.9587 19.2043 28.104 19.1389C28.2578 19.0696 28.5265 19.0187 28.7477 19.0181C28.9563 19.0174 29.2389 19.063 29.3749 19.1191C29.511 19.1759 29.7071 19.302 29.81 19.3997C29.913 19.4981 30.0609 19.6968 30.1375 19.8421C30.2392 20.0329 30.2782 20.225 30.2782 20.5353C30.2782 20.8496 30.2385 21.0398 30.1316 21.2451C30.0517 21.3996 29.8893 21.5983 29.7711 21.6868C29.6529 21.7753 29.4449 21.8941 29.3089 21.9509C29.1729 22.0077 28.92 22.0532 28.7477 22.0526C28.5754 22.0519 28.3007 21.9905 28.137 21.9166C27.9732 21.842 27.7699 21.7165 27.6847 21.6373C27.5995 21.5574 27.4734 21.3811 27.4041 21.2451C27.3354 21.1091 27.2602 20.8859 27.2377 20.7499C27.2146 20.6139 27.2298 20.3538 27.2707 20.1722C27.3183 19.9609 27.4338 19.7371 27.5923 19.5502Z" fill="#F5FCFB"/>
</svg>
