<svg width="40" height="40" viewBox="0 0 40 40" fill="none" xmlns="http://www.w3.org/2000/svg">
<path d="M0 40V0H40V40H0Z" fill="#F6F4E9"/>
<path d="M0.520833 39.3761V0.519931L39.4271 0.537262L39.4444 39.3761H0.520833Z" fill="#474747"/>
<path d="M31.8924 13.418C32.0261 13.3965 32.1743 13.3726 32.2222 13.3643C32.2702 13.356 32.5354 13.3556 32.8125 13.3629C33.0896 13.3705 33.4566 13.4017 33.6285 13.4322C33.8004 13.4631 34.0778 13.5338 34.2448 13.5896C34.4118 13.6458 34.6618 13.748 34.8004 13.817C34.9389 13.8856 35.1597 14.0146 35.2913 14.103C35.4233 14.191 35.5365 14.2752 35.5431 14.2894C35.55 14.3036 35.333 14.6277 34.566 15.704L34.4792 15.6447C34.4316 15.6121 34.3063 15.5348 34.2014 15.4728C34.0966 15.4111 33.8698 15.3061 33.6979 15.2395C33.5261 15.173 33.2643 15.0939 33.1163 15.0638C32.9684 15.0333 32.7417 15.0087 32.6129 15.009C32.4841 15.009 32.316 15.0267 32.2396 15.0478C32.1632 15.0693 32.05 15.1394 31.9879 15.2038C31.9042 15.2901 31.875 15.3522 31.875 15.442C31.875 15.5088 31.8983 15.6101 31.9271 15.6673C31.9559 15.7244 32.0299 15.8004 32.092 15.8364C32.1542 15.8721 32.3063 15.9342 32.4306 15.974C32.5549 16.0139 32.8907 16.1019 33.1771 16.1695C33.4636 16.2371 33.8229 16.3335 33.9757 16.3837C34.1285 16.434 34.3629 16.5244 34.4966 16.5848C34.6302 16.6447 34.8334 16.757 34.9479 16.834C35.0625 16.9109 35.2316 17.0582 35.324 17.1612C35.416 17.2641 35.5313 17.4343 35.5799 17.539C35.6285 17.6437 35.6913 17.8388 35.7198 17.9723C35.7556 18.1425 35.7646 18.3134 35.7497 18.5442C35.7351 18.7699 35.6979 18.9608 35.632 19.1508C35.5788 19.3033 35.4736 19.5206 35.3979 19.6333C35.3223 19.7463 35.1667 19.9231 35.0521 20.0264C34.9282 20.138 34.7174 20.2756 34.5313 20.3664C34.3594 20.4499 34.0938 20.5504 33.941 20.5893C33.7882 20.6284 33.515 20.6773 33.3334 20.6978C33.1514 20.7186 32.832 20.7258 32.6216 20.7137C32.4115 20.7019 32.0913 20.6673 31.9097 20.6368C31.7282 20.6062 31.4236 20.5355 31.2327 20.4794C31.0417 20.4229 30.7136 20.2926 30.5035 20.1893C30.2934 20.086 29.9848 19.8998 29.5139 19.5494L29.592 19.4506C29.6351 19.3965 29.8792 19.104 30.1344 18.8007C30.39 18.4978 30.6125 18.2458 30.6292 18.2409C30.6459 18.2361 30.7184 18.2766 30.79 18.331C30.8615 18.3851 31.0295 18.495 31.1632 18.5747C31.2969 18.6544 31.5236 18.764 31.6667 18.8184C31.8101 18.8728 32.0365 18.9456 32.1702 18.9803C32.341 19.0243 32.5472 19.0433 32.8646 19.0447C33.2591 19.0465 33.3358 19.0374 33.4722 18.9716C33.5827 18.9186 33.6476 18.8572 33.6934 18.7636C33.7379 18.6735 33.7521 18.592 33.7386 18.5095C33.7247 18.427 33.6761 18.3518 33.5865 18.2745C33.5091 18.2076 33.3479 18.1258 33.1945 18.0759C33.0514 18.0288 32.7077 17.9352 32.4306 17.8676C32.1535 17.8 31.7788 17.6964 31.5972 17.6374C31.4157 17.5785 31.1191 17.4551 30.9375 17.3633C30.7104 17.2485 30.5427 17.1331 30.3993 16.9924C30.2847 16.8801 30.141 16.696 30.0802 16.583C30.0191 16.47 29.9434 16.2686 29.9118 16.1352C29.8702 15.9605 29.8587 15.7955 29.8702 15.5459C29.8816 15.2912 29.9108 15.1258 29.9806 14.922C30.0327 14.7695 30.1424 14.5432 30.2243 14.4194C30.3059 14.2957 30.4493 14.1265 30.5424 14.0437C30.6358 13.9612 30.7979 13.8409 30.9028 13.7768C31.0077 13.7127 31.2188 13.6146 31.3716 13.5588C31.5243 13.503 31.7587 13.4395 31.8924 13.418Z" fill="#F6F4E9"/>
<path d="M21.7219 17.435C21.7556 17.5491 21.7983 17.4347 22.4441 15.5019L23.1309 13.4478L24.8379 13.4662L25.5209 15.5113C26.1754 17.4707 26.2056 17.5511 26.2431 17.435C26.265 17.3681 26.5337 16.4794 26.8407 15.4593C27.1476 14.4392 27.4059 13.5775 27.4146 13.5442C27.4292 13.4881 27.5087 13.4835 28.4549 13.4835C29.0184 13.4835 29.4795 13.4953 29.4795 13.5095C29.4799 13.5238 28.9486 15.1383 27.1181 20.6586L25.3993 20.661L25.3049 20.4083C25.2532 20.2697 24.9354 19.3681 24.599 18.4056C24.2625 17.443 23.9778 16.6395 23.9663 16.6205C23.9549 16.6014 23.8875 16.7574 23.8167 16.9671C23.7459 17.1768 23.5549 17.7303 23.3927 18.1976C23.2302 18.6648 22.9729 19.4056 22.5448 20.6413L20.816 20.6607L19.6271 17.0981C18.9733 15.1387 18.4382 13.5238 18.4379 13.5095C18.4375 13.4953 18.9087 13.4874 20.5323 13.5009L21.1094 15.4073C21.4268 16.4558 21.7025 17.3681 21.7219 17.435Z" fill="#F6F4E9"/>
<path d="M4.13163 20.5889V13.4832L5.98927 13.4818L8.87121 17.1733L8.88684 13.4832H10.8677V20.5889L9.11427 20.5858L6.12815 16.7508L6.11079 20.5889H4.13163Z" fill="#F6F4E9"/>
<path d="M12.1177 20.5889V13.4832H17.8469V15.147H14.0969V16.2215H17.4997V17.7813H14.0969V18.8905H17.9163V20.5889H12.1177Z" fill="#F6F4E9"/>
<path d="M5.43371 21.9917C5.54829 21.9591 5.74378 21.9203 5.86774 21.9061C5.99204 21.8919 6.21079 21.8881 6.35385 21.8978C6.49725 21.9075 6.73163 21.9452 6.87468 21.9816C7.01809 22.0184 7.24447 22.1057 7.37781 22.1764C7.52954 22.2569 7.71461 22.3986 7.8726 22.556C8.01149 22.6943 8.12399 22.8191 8.12329 22.8333C8.1226 22.8478 7.90767 23.0257 7.16982 23.5979L6.97885 23.4163C6.87399 23.3161 6.741 23.2101 6.68371 23.1803C6.62642 23.1508 6.48579 23.1075 6.37121 23.0846C6.21184 23.0523 6.11843 23.052 5.9719 23.0825C5.86704 23.1047 5.71843 23.1588 5.64204 23.2031C5.56565 23.2475 5.44968 23.3442 5.3844 23.4184C5.31878 23.4922 5.22607 23.6385 5.17781 23.7432C5.10559 23.9005 5.08996 23.9886 5.08857 24.2458C5.08718 24.4711 5.10559 24.6108 5.15454 24.7484C5.19204 24.8534 5.28163 25.0132 5.3542 25.1036C5.44274 25.2142 5.55732 25.3036 5.70281 25.3754C5.90489 25.4745 5.94065 25.4811 6.21496 25.4679C6.44586 25.4565 6.54829 25.434 6.68371 25.364C6.7792 25.3144 6.93545 25.1962 7.20454 24.9283L8.1594 25.6149L8.09413 25.7102C8.05836 25.7629 7.91392 25.9137 7.77295 26.0461C7.59482 26.2135 7.43302 26.3265 7.23927 26.4187C7.08649 26.4915 6.84447 26.5757 6.70107 26.6062C6.51531 26.6454 6.32642 26.6565 6.04135 26.6454C5.73649 26.6333 5.57642 26.6083 5.36427 26.5393C5.21149 26.4894 4.98788 26.3896 4.86704 26.3179C4.74621 26.2458 4.55072 26.0898 4.43302 25.9709C4.31496 25.852 4.1594 25.6572 4.08718 25.5376C4.01461 25.418 3.91427 25.1955 3.86357 25.043C3.78336 24.8007 3.77156 24.7071 3.76947 24.2978C3.76739 23.9009 3.77954 23.7903 3.84829 23.5699C3.89274 23.427 3.98475 23.2087 4.05315 23.0846C4.12815 22.948 4.28753 22.7501 4.45836 22.5816C4.64447 22.3976 4.82156 22.261 4.98232 22.1775C5.116 22.1078 5.31913 22.0243 5.43371 21.9917Z" fill="#F6F4E9"/>
<path d="M27.0917 26.5532C27.0966 26.5352 27.5372 25.4901 28.0709 24.2302L29.0413 21.9394L30.2806 21.9581L30.5011 22.478C30.6222 22.764 31.0591 23.7976 31.4716 24.7744C31.8844 25.7515 32.2219 26.5588 32.2219 26.5681C32.2219 26.5778 31.9174 26.5855 30.8677 26.5855L30.8018 26.4381C30.7657 26.3574 30.6875 26.1702 30.5205 25.7536L28.767 25.7522L28.4372 26.5855H27.7601C27.3577 26.5855 27.0868 26.5723 27.0917 26.5532Z" fill="#F6F4E9"/>
<path d="M8.68024 26.5858V21.9757H12.3785L12.3782 23.0676L9.96496 23.0849V23.7435H12.1525V24.7834H9.96496V25.4766H12.4302L12.4129 26.5685L8.68024 26.5858Z" fill="#F6F4E9"/>
<path d="M13.0552 26.5858V21.9757L14.2532 21.9782L16.0934 24.348L16.108 21.9757H17.3955V26.5858L16.3018 26.5872L16.2122 26.4912C16.1629 26.4381 15.7254 25.8835 14.3573 24.122L14.3226 26.5685L13.0552 26.5858Z" fill="#F6F4E9"/>
<path d="M17.9337 23.1023L17.9146 21.9757H21.9788L21.9615 23.1023L20.59 23.1196V26.5858H19.3052V23.1196L17.9337 23.1023Z" fill="#F6F4E9"/>
<path d="M22.4993 26.5858L22.5045 21.9705L23.8476 21.9841C24.9893 21.9955 25.2216 22.0066 25.3986 22.0575C25.5132 22.0905 25.6851 22.1532 25.7806 22.1972C25.8761 22.2409 26.0379 22.3536 26.1403 22.4468C26.2538 22.5508 26.3657 22.6978 26.4278 22.825C26.4851 22.9414 26.5473 23.147 26.5695 23.2929C26.5997 23.4905 26.5993 23.6149 26.5677 23.8128C26.5448 23.9556 26.4886 24.1508 26.4427 24.2461C26.3969 24.3414 26.2917 24.4932 26.2091 24.5834C26.1264 24.6738 25.9688 24.7986 25.6601 24.974L26.1979 25.7626C26.4938 26.1962 26.7354 26.5588 26.7354 26.5685C26.7354 26.5778 26.4035 26.5851 25.2598 26.5837L24.3396 25.1993H23.7841V26.5858H22.4993Z" fill="#F6F4E9"/>
<path d="M32.6733 26.5855V21.9754H33.958V25.4416H36.1455V26.5855H32.6733Z" fill="#F6F4E9"/>
<path d="M23.7788 23.6454C23.7757 23.3625 23.7875 23.1192 23.8049 23.1047C23.8226 23.0901 24.0712 23.0839 24.3577 23.0904C24.8035 23.1008 24.8986 23.113 25.0174 23.175C25.0938 23.2149 25.1861 23.3008 25.2229 23.3657C25.266 23.4416 25.2882 23.5449 25.2861 23.6568C25.2841 23.7719 25.2601 23.8593 25.2153 23.9168C25.1782 23.9643 25.1056 24.0346 25.0542 24.0728C24.9705 24.1348 24.8979 24.1431 23.7848 24.1594L23.7788 23.6454Z" fill="#474747"/>
<path d="M29.1663 24.7227C29.166 24.7085 29.2716 24.4284 29.4007 24.1002C29.5299 23.7722 29.6452 23.5147 29.657 23.5282C29.6691 23.5417 29.7764 23.8024 29.8955 24.1074C30.0146 24.4125 30.1184 24.6814 30.1257 24.7054C30.1358 24.7386 30.0257 24.7487 29.6528 24.7487C29.3854 24.7487 29.1663 24.7369 29.1663 24.7227Z" fill="#474747"/>
</svg>
