<svg version="1.2" xmlns="http://www.w3.org/2000/svg" viewBox="0 0 1280 320" width="1280" height="320">
	<style>
		.s0 { fill: #1e90ff } 
	</style>
	<path id="Path 0" fill-rule="evenodd" class="s0" d="m1072.5 1.84c-4.4 0.99-10.92 2.77-14.5 3.97-3.58 1.2-9.88 3.88-14 5.95-4.13 2.08-10.2 5.56-13.5 7.75-3.3 2.18-9.99 7.8-14.86 12.48-4.88 4.68-11.41 11.88-14.52 16.01-3.11 4.12-7.74 11.55-10.29 16.5-2.55 4.95-5.97 12.83-7.61 17.5-1.64 4.67-3.79 12.33-4.77 17-1.31 6.28-1.78 13.07-1.77 26 0 12.89 0.45 19.47 1.7 25 0.94 4.12 3.07 11.55 4.73 16.5 1.66 4.95 5.13 12.98 7.7 17.85 2.58 4.87 7.44 12.52 10.8 17 3.36 4.48 9.66 11.47 14 15.52 4.34 4.05 11.72 9.89 16.39 12.98 4.67 3.08 12.33 7.28 17 9.33 4.67 2.04 13 4.91 18.5 6.38 8.95 2.38 11.78 2.67 27 2.68 9.35 0.01 19.7-0.52 23-1.18 3.3-0.65 9.37-2.28 13.5-3.61 4.12-1.34 11.33-4.35 16-6.7 4.67-2.35 11.2-6.04 14.5-8.19 3.3-2.16 10.77-8.68 16.6-14.49 5.83-5.81 12.65-13.72 15.15-17.57 2.5-3.85 6.64-11.28 9.19-16.5 2.56-5.22 5.96-13.78 7.56-19 1.6-5.22 3.38-12.99 3.95-17.25 0.58-4.26 1.05-13.6 1.05-20.75 0-8.91-0.62-16.07-1.95-22.75-1.08-5.36-3.38-13.8-5.12-18.75-1.74-4.95-4.51-11.7-6.15-15-1.65-3.3-5.53-9.83-8.62-14.5-3.09-4.68-9.68-12.58-14.64-17.56-4.96-4.98-12.85-11.59-17.52-14.68-4.67-3.1-12.55-7.53-17.5-9.84-4.95-2.31-13.28-5.33-18.5-6.7-8-2.11-12.26-2.55-27-2.84-14.11-0.27-19.05 0.01-25.5 1.46zm47.75 9.57c-4.26-2.52-6.85-4.34-5.75-4.05 1.1 0.29 4.92 1.25 8.5 2.13 3.58 0.88 7.06 1.8 7.75 2.05 0.9 0.33 0.97 1.01 0.25 2.46-0.55 1.1-1.45 2-2 2-0.55 0-4.49-2.06-8.75-4.59zm-53.75-1.57c3.3-0.93 6.9-1.71 8-1.75 1.2-0.04-0.61 1.57-4.5 4.03-4.79 3.02-6.89 3.85-8 3.13-0.83-0.53-1.5-1.59-1.5-2.35 0-0.84 2.36-2.05 6-3.06zm10.3 5.91c4.24-2.62 7.8-4.76 7.91-4.75 0.12 0-0.07 0.56-0.42 1.25-0.35 0.69-2.36 3.84-8.29 12.75l-3-1.5c-1.65-0.83-3.2-1.84-3.45-2.25-0.24-0.41 3.02-2.89 7.25-5.5zm31.67-1c-1.03-1.51-1.45-2.75-0.92-2.75 0.52 0 3.84 1.69 7.37 3.75 3.54 2.06 6.59 4.2 6.79 4.75 0.19 0.55-0.9 1.66-2.43 2.47-1.53 0.81-3 1.61-3.28 1.79-0.28 0.18-1.66-1.38-3.08-3.47-1.42-2.08-3.42-5.03-4.45-6.54zm-9.53-2.25l3.31 4.5c1.83 2.47 4.09 5.74 5.03 7.25 1.3 2.07 1.41 2.86 0.47 3.2-0.69 0.24-2.94 0.92-8.75 2.55l-0.03-8.75zm-7.56 1.25l0.79 3.37c0.43 1.86 0.57 5.29 0.31 7.63-0.28 2.47-1 4.26-1.73 4.26-0.69 0.01-2.72-0.33-4.52-0.75-1.8-0.42-3.38-1.14-3.5-1.6-0.12-0.46 1.77-3.56 4.21-6.88zm-48.88 5.86c4.4-2.53 8.68-4.58 9.5-4.56 0.83 0.01 2.38 1.24 5.38 5.46l-6.44 5.69c-4.69 4.16-6.23 6.12-5.69 7.25 0.42 0.86 1.77 1.55 3 1.54 1.24-0.01 4.28-1.71 6.75-3.76 2.48-2.06 5.29-4.3 6.25-4.98 1.47-1.04 2.49-0.79 6.25 1.51 2.48 1.51 4.5 3.08 4.5 3.5 0 0.41-1.31 3.33-2.91 6.5-2.09 4.13-2.65 6.24-2 7.5 0.5 0.96 1.7 1.75 2.66 1.76 1.17 0.01 2.86-2.23 8.45-13.51l5.15 0.7c2.83 0.39 5.94 0.98 6.91 1.31 1.28 0.44 1.89 2.01 2.24 5.79 0.27 2.86 0.49 7.22 0.52 14.2l-6.01-0.75c-4.86-0.61-6.25-0.46-7.26 0.8-1.02 1.26-0.92 1.86 0.54 3.25 1.01 0.95 4.07 1.91 12.21 2.7l0.5 36.5h2.5c1.38 0 2.73-0.68 3-1.5 0.28-0.83 0.5-2.63 0.5-4 0-2.41 0.31-2.53 7.75-3.09 4.27-0.32 9.33-0.97 11.25-1.43 1.93-0.47 4.07-1.56 4.75-2.42 0.69-0.86 0.92-2.07 0.5-2.7-0.52-0.79-3.45-0.93-9.75-0.45-4.95 0.38-10.23 0.89-14.5 1.59v-23l3.25-0.02c1.79-0.01 7.3-0.69 12.25-1.5 7.41-1.22 9.18-1.25 10-0.17 0.55 0.72 2.13 5 3.5 9.5 1.69 5.53 3.07 8.36 4.25 8.69 0.97 0.27 2.2 0.27 2.75 0 0.55-0.28 1-1.52 0.99-2.75-0.01-1.24-1.12-5.85-2.47-10.25-1.35-4.4-2.21-8.23-1.9-8.5 0.31-0.28 4.68-2.4 9.72-4.72 7.15-3.29 9.42-3.94 10.35-3 0.65 0.67 3.7 5.27 6.77 10.22 3.08 4.95 5.58 9.33 5.57 9.75-0.02 0.41-1.38 1.2-3.03 1.75-1.65 0.55-3 1.67-3 2.5 0 0.9 1.29 1.72 3.25 2.07 1.79 0.32 3.71 0.43 4.27 0.25 0.56-0.18 2.14 0.7 3.5 1.95 1.37 1.25 2.93 2.1 3.48 1.9 0.55-0.2 1-2.01 1-4.01 0-3.51 0.34-3.86 8.25-8.66 4.54-2.75 8.7-5 9.25-5 0.55 0 2.5 3.03 4.34 6.75 1.83 3.71 4.31 9.22 5.5 12.25 1.19 3.02 3.33 10 4.75 15.5 1.94 7.57 2.7 13.52 3.11 24.5 0.4 10.94 0.13 16.83-1.11 24-0.9 5.22-2.8 13.1-4.21 17.5-1.42 4.4-4.08 11.15-5.92 15-1.84 3.85-5.72 10.6-8.61 15-2.89 4.4-9.38 12.27-14.43 17.5-9.04 9.37-9.2 9.47-11.54 7.88-1.31-0.88-3.85-3.13-5.65-5-1.8-1.86-4.01-4.96-4.9-6.88-0.89-1.93-1.67-5.75-1.83-13.48l6.5-0.74c3.58-0.41 8.75-1.4 11.5-2.2 2.75-0.79 7.7-3.42 11-5.83 3.3-2.42 8.19-6.83 10.87-9.82 2.68-2.99 5.94-7.57 7.25-10.18 1.31-2.62 3.06-7.34 3.89-10.5 0.86-3.31 1.5-10.01 1.49-15.75-0.01-5.5-0.61-12.25-1.34-15-0.72-2.75-3.08-8.34-5.24-12.42-2.84-5.36-6.01-9.36-11.5-14.5-4.41-4.11-10.28-8.41-14-10.24-3.53-1.74-9-3.65-12.17-4.25-3.98-0.76-7.89-0.79-12.75-0.09-3.85 0.55-8.68 1.84-10.75 2.88-2.06 1.03-8.25 5.99-13.75 11.01-7.77 7.1-11.11 9.47-15 10.63-2.75 0.82-6.65 1.49-8.68 1.49-2.2-0.01-4.34 0.69-5.35 1.74-0.98 1.02-1.45 2.58-1.12 3.75 0.31 1.1 0.8 3.23 1.11 4.75 0.4 2.02 0.15 2.75-0.96 2.75-0.82 0-1.95 0.9-2.5 2-0.55 1.1-1 3.12-1 4.5q0.01 2.5-2.25 3.36c-1.56 0.6-2.48 2.05-3.01 4.75-0.42 2.14-1.42 4.56-2.24 5.39-0.81 0.82-1.77 3.07-2.14 5-0.41 2.18-0.13 4.77 0.74 6.88 0.82 1.97 4.27 5.73 8.26 9 3.77 3.09 7.65 6.97 8.63 8.62 0.98 1.65 2.55 7.95 3.49 14 0.95 6.05 1.9 12.68 2.12 14.75 0.33 3.09-0.11 4.27-2.52 6.75-1.61 1.65-3.97 2.99-5.25 2.99-1.28-0.01-5.93 0.89-10.33 2-4.4 1.11-13.17 4.03-19.5 6.49-6.32 2.46-13.97 4.94-17 5.51-3.02 0.56-7.41 1.02-9.75 1.02-2.33-0.01-5.26-0.53-6.5-1.16-1.23-0.63-4.38-2.88-7-5-4.23-3.43-4.75-4.29-4.75-7.85 0-2.2 0.68-5.35 3-10l3.75 1.62c3.04 1.32 5.86 1.52 14.75 1.05 6.05-0.31 12.58-1.07 14.5-1.67 2.17-0.68 7.32-0.87 23.5 0.09l3-3.32c1.65-1.83 3.6-5.34 4.33-7.8 0.73-2.46 1.18-5.82 1-7.47-0.3-2.77-0.66-3.02-4.58-3.25-3-0.18-4.25-0.7-4.25-1.75 0-1.07-1.09-1.51-3.75-1.52-2.44-0.01-4.97 0.87-7.25 2.52-1.97 1.42-4.81 2.51-6.5 2.48-1.65-0.03-6.6-0.69-11-1.48-5.04-0.89-8.57-2.08-9.56-3.21-0.91-1.05-1.88-4.93-2.33-9.29-0.42-4.13-1.63-13.02-2.69-19.75-1.05-6.74-1.92-13.83-1.92-15.75 0-3 0.4-3.6 2.75-4.16 1.52-0.37 5.23-0.14 8.25 0.49 3.03 0.63 7.08 1.17 9 1.2 2.92 0.04 4.46-0.88 9.25-5.5 3.17-3.04 5.74-6.32 5.72-7.28-0.02-0.97 0.9-2.65 2.03-3.75 1.59-1.54 2.06-3.23 2.04-7.25-0.03-4.34 0.62-6.33 3.71-11.43 3.49-5.74 3.78-6.79 4.41-24.32l-4.08-6.25c-2.24-3.44-6.66-8.3-9.83-10.79-3.16-2.5-8.67-5.97-12.25-7.73-5.9-2.89-7.37-3.19-16-3.21-8.45-0.02-10.08 0.28-14.75 2.73-2.88 1.51-7.14 4.66-9.45 7-2.31 2.33-5.34 6.72-6.75 9.75-2.21 4.77-2.54 6.82-2.5 15.5 0.02 5.5 0.43 13.82 1.77 27l-3.91 3.23c-2.15 1.79-7.51 5.74-11.91 8.8-4.4 3.05-8.14 5.42-8.32 5.26-0.18-0.16 0.4-5.47 1.28-11.79 0.89-6.33 2.98-15.55 4.65-20.5 1.67-4.95 5.25-13.28 7.95-18.5 2.7-5.23 7.78-13.33 11.29-18 3.52-4.68 9.26-11 12.77-14.04 3.51-3.05 8.18-6.94 10.38-8.66 2.2-1.71 7.6-5.18 12-7.7zm93.42-2.16c1.33-1.34 2.91-2.45 3.5-2.45 0.6 0 4.68 2.05 9.08 4.56 4.4 2.51 9.47 5.66 11.25 7 1.79 1.35 3.27 2.78 3.3 3.2 0.02 0.41-2.34 2.43-10.55 8.21l-19-18.08zm-11.92 10.12c1.93-1.36 3.95-2.49 4.5-2.52 0.55-0.04 4.83 3.5 9.5 7.85 5.86 5.45 8.19 8.25 7.5 8.99-0.55 0.59-4.6 2.65-17 8.07l-4.87-9.73c-2.67-5.35-4.47-9.83-4-9.96 0.48-0.14 2.45-1.35 4.37-2.7zm-18.5 7.09c1.1-0.23 3.35-0.48 5-0.55 2.78-0.11 3.29 0.45 6.75 7.39 2.07 4.13 3.75 8.18 3.75 9.01 0 0.85-1.18 1.71-2.75 1.98-1.51 0.26-5.67 0.94-9.25 1.49-3.57 0.56-7.28 1.02-8.25 1.02-1.54 0.01-1.75-1.11-1.76-9.47-0.01-9.05 0.09-9.51 2.25-9.96 1.25-0.27 3.16-0.67 4.26-0.91zm57.43 3.98c3.78-3.04 5.91-4.13 7-3.6 0.87 0.43 4.69 4.31 8.51 8.62 3.81 4.32 7.52 8.64 8.25 9.6 1.18 1.57 0.47 2.25-7.19 6.75-4.67 2.75-8.83 4.98-9.25 4.95-0.41-0.02-3.45-4.64-6.75-10.25-3.3-5.61-6-10.54-6-10.95 0-0.41 2.45-2.72 5.43-5.12zm-1152.55 56.03c-1.68 1.58-1.73 5.32-0.95 70.25 0.73 60.3 1.04 69.43 2.58 75.59 0.97 3.85 3.27 10.1 5.13 13.88 1.85 3.79 5.39 9.39 7.86 12.44 2.48 3.05 7.2 7.41 10.5 9.68 3.3 2.27 8.7 5.22 12 6.56 5.57 2.25 7.23 2.43 23 2.37 16.18-0.05 17.37-0.19 24.5-2.9 4.13-1.56 9.75-4.18 12.5-5.81 2.75-1.64 6.97-4.61 9.38-6.6 2.4-1.99 6.26-6.1 8.57-9.12l4.21-5.5c1.05 9.3 1.35 15.04 1.35 18.75l-0.01 6.75h33c0-175.72-0.18-187.06-1.5-187.5-0.82-0.28-8.02-0.5-16-0.5-7.97 0-15.17 0.22-16 0.5-1.3 0.43-1.5 7.25-1.5 53.25-0.01 29.23-0.47 56.76-1.03 61.75-0.56 4.95-1.73 11.92-2.6 15.5-0.87 3.57-2.85 9.2-4.39 12.5-1.79 3.81-4.84 7.91-8.39 11.25-3.07 2.89-8.17 6.47-11.34 7.97-4.82 2.28-7.43 2.78-16.25 3.13-7.8 0.3-11.78 0-15.5-1.19-2.75-0.88-6.8-2.88-9-4.46-2.2-1.57-5.24-4.62-6.75-6.78-1.52-2.16-4.11-7.86-5.75-12.67l-3-8.75c0-120.5-0.19-129.2-1.5-130.5-1.2-1.2-4.49-1.5-16.42-1.5-12.56 0-15.21 0.26-16.7 1.66zm1255.87 23.04c-1.11 1.54-4.28 7.3-7.04 12.8-2.77 5.5-6.37 13.37-8 17.5-1.64 4.12-3.96 11.1-5.17 15.5-1.21 4.4-2.05 9.54-1.87 11.42 0.18 1.88 0.9 3.57 1.58 3.75 0.69 0.18 3.58-1.81 6.41-4.42 2.84-2.61 6.79-7.23 8.78-10.25 1.98-3.03 4.87-9.33 6.42-14 2.42-7.36 2.82-10.24 2.97-21.4 0.12-8.76-0.19-13.04-0.95-13.3-0.61-0.22-2.02 0.86-3.13 2.4zm-244.25 147.39c-3.57 0.46-11.56 1.98-17.75 3.37-9.73 2.2-11.25 2.81-11.25 4.54 0 1.65 1.64 2.51 9.25 4.89 5.09 1.6 11.95 3.47 15.25 4.16 3.3 0.7 11.85 1.27 19 1.28 7.15 0.01 14.8-0.48 17-1.09 2.2-0.62 6.7-3.15 10-5.64l6-4.53c8.92 2.27 12.9 3.49 14.6 4.18l3.1 1.25c-11.3 7.75-19.24 14.5-24.95 20-5.7 5.5-10.62 10.9-10.92 12-0.39 1.37 0.26 2.71 2.06 4.25 1.44 1.24 3.06 2.25 3.61 2.25 0.55 0 6.52-5.56 13.25-12.35 6.74-6.79 15.29-14.44 19-17l6.75-4.65c10.47 7.24 19.02 14.89 25.75 21.67 6.74 6.78 12.72 12.33 13.3 12.33 0.57 0 2.15-1.13 3.5-2.5 2.09-2.14 2.29-2.83 1.3-4.75-0.63-1.24-4.42-5.63-8.41-9.75-3.99-4.13-11.61-10.65-16.93-14.5l-9.67-7c4.78-1.94 8.64-3.18 11.66-4l5.5-1.5c6.59 5.23 9.97 7.48 11.75 8.37 1.79 0.9 6.97 2.11 11.5 2.69 4.54 0.59 12.08 0.78 16.75 0.42 4.68-0.36 11.43-1.3 15-2.09 3.58-0.79 9.99-2.55 14.25-3.91 6.26-2 7.75-2.87 7.75-4.48 0-1.74-1.49-2.33-11.25-4.49-6.18-1.37-15.07-2.94-19.75-3.5-4.67-0.56-14.57-1.01-22-1.01-7.8 0-17.3 0.67-22.5 1.58-4.95 0.87-13.16 2.89-18.25 4.5l-9.25 2.92c-14.33-4.54-22.88-6.56-28.25-7.43-6.1-0.98-15.26-1.52-24.5-1.44-8.11 0.06-17.67 0.5-21.25 0.96zm-174.5-260.21c-3.85 0.95-9.58 2.94-12.75 4.42-3.16 1.48-7.91 4.84-10.56 7.45-2.65 2.61-6.03 6.66-7.5 9-1.48 2.34-3.59 6.95-4.69 10.25-1.69 5.07-2.11 10.01-2.75 32l-0.75 26h-29.5l-0.01 24.5c12.02 1.17 18.78 1.5 22.76 1.5h7.25c0 147.89 0.2 158.19 1.5 159.5 1.2 1.19 4.44 1.5 15.93 1.5 11.46 0 14.75-0.31 16-1.5 1.41-1.34 1.57-10.03 1.57-81v-79.5c36.89 0 40.08-0.24 40.5-1.5 0.28-0.83 0.5-5.78 0.5-11 0-5.23-0.22-10.18-0.5-11-0.42-1.27-3.61-1.5-20.5-1.5h-20c0.07-30.61 0.48-41.53 0.96-44 0.64-3.36 1.85-5.39 4.76-8 2.29-2.06 5.93-4.04 8.84-4.81 2.97-0.79 9.92-1.26 17.44-1.19 9.4 0.1 12.69-0.2 13.24-1.19 0.4-0.72 0.75-6.71 0.77-13.31 0.02-8.16-0.38-12.56-1.24-13.73-0.8-1.1-4.19-2.29-9.27-3.25-4.4-0.84-11.82-1.49-16.5-1.45-4.67 0.04-11.65 0.85-15.5 1.81zm-465.5 26.62v19.5c36.89 0 40.08-0.24 40.5-1.5 0.28-0.83 0.5-8.93 0.5-18 0-9.08-0.22-17.18-0.5-18-0.42-1.27-3.61-1.5-20.5-1.5h-20zm576.89 7.75c-3.08 3.44-6.97 8.27-8.64 10.75-1.68 2.47-4 7.31-5.15 10.75-1.27 3.79-2.1 8.8-2.1 12.75 0 5.3 0.33 6.6 1.75 7.07 1.18 0.38 2.69-0.51 4.61-2.75 1.57-1.83 4.3-5.57 6.07-8.32 1.76-2.75 4.25-7.48 5.52-10.5 1.27-3.03 3.34-9.55 4.59-14.5 1.73-6.87 2-9.31 1.12-10.3-0.64-0.71-1.39-1.27-1.67-1.25-0.28 0.03-3.03 2.86-6.1 6.3zm265.73-5.31c-0.34 0.58 0.35 5 1.52 9.81 1.18 4.81 3.33 11.45 4.78 14.75 1.45 3.3 3.59 7.8 4.75 10 1.17 2.2 3.86 5.94 5.98 8.32 3.05 3.43 4.25 4.16 5.76 3.5 1.72-0.75 1.85-1.61 1.32-9.32-0.49-7.11-1.17-9.65-4.16-15.5-1.97-3.85-6.41-10.38-9.87-14.5-3.46-4.13-7-7.64-7.87-7.81-0.88-0.17-1.87 0.17-2.21 0.75zm-8.44 26.35c-0.74 0.85-0.66 2.38 0.27 5.21 0.73 2.2 2.44 6.47 3.81 9.5 1.37 3.02 4.75 9.32 7.5 14 2.76 4.67 7.09 10.86 9.63 13.75 2.54 2.89 5.29 5.25 6.11 5.25 1.18 0 1.5-1.36 1.49-6.25 0-3.44-0.68-8.73-1.51-11.75-0.82-3.03-2.69-7.53-4.14-10-1.46-2.48-5.67-7.43-9.36-11-3.68-3.58-8.06-7.27-9.72-8.21-2.34-1.33-3.26-1.44-4.08-0.5zm-246.25 2.83c-2.43 1.72-6.36 4.98-8.73 7.25-2.36 2.27-5.61 6.15-7.2 8.63-1.6 2.47-3.84 7.2-4.97 10.5-1.16 3.37-2.05 8.52-2.04 11.75 0.01 3.56 0.49 6 1.26 6.41 0.77 0.41 3.35-1.62 6.65-5.25 2.97-3.25 7.92-10.2 11-15.44 3.08-5.23 6.9-12.66 8.49-16.5 1.6-3.89 2.6-7.74 2.25-8.72-0.35-0.96-1.01-1.75-1.46-1.75-0.45 0-2.81 1.4-5.25 3.12zm-37.8 3.63c-0.52 0.96-1.7 5.35-2.63 9.75-0.93 4.4-1.92 11.82-2.19 16.5q-0.5 8.5 1.08 16c0.86 4.12 3.05 10.42 4.85 14 2.42 4.8 3.87 6.56 5.52 6.75 2.03 0.22 2.31-0.3 2.89-5.5 0.35-3.16 0.36-12.95 0.02-21.75-0.38-9.75-1.37-19.32-2.52-24.5-1.04-4.68-2.39-9.51-3.02-10.75-0.62-1.24-1.56-2.25-2.1-2.25-0.53 0-1.39 0.79-1.9 1.75zm322.77 2c-0.59 1.51-1.71 5.9-2.5 9.75-0.79 3.85-1.7 16-2.03 27-0.4 13.63-0.23 20.87 0.53 22.75 0.61 1.51 1.67 2.61 2.35 2.44 0.69-0.18 3.18-4.11 5.53-8.75 3.31-6.54 4.53-10.36 5.42-16.94 0.87-6.52 0.86-10.6-0.08-17.5-0.67-4.95-1.87-11.81-2.67-15.25-1.19-5.13-1.81-6.25-3.47-6.25-1.27 0-2.41 1.01-3.08 2.75zm-575.4 20.74c-4.4 0.72-10.92 2.23-14.5 3.37-3.57 1.13-9.31 3.77-12.75 5.85-3.45 2.08-8.4 5.61-11 7.84-2.61 2.23-6.83 6.73-9.37 10-2.54 3.27-6.23 8.87-8.19 12.45-1.97 3.57-4.92 10.55-6.57 15.5-1.64 4.95-3.69 13.05-4.55 18-1.02 5.89-1.56 15.21-1.56 27 0 10.92 0.55 21.15 1.39 26 0.77 4.4 2.39 11.37 3.6 15.5 1.21 4.12 4.27 11.55 6.79 16.5 3.62 7.1 6.39 10.81 13.15 17.59 6.55 6.57 10.33 9.46 16.06 12.26 4.13 2.01 11.1 4.58 15.5 5.71 6.16 1.59 11.22 2.07 22 2.11 7.7 0.02 16.93-0.48 20.5-1.11 3.58-0.64 9.43-2.09 13-3.22 3.58-1.14 9.2-3.54 12.5-5.33 3.3-1.79 8.88-5.9 12.39-9.13 3.51-3.24 7.76-7.91 9.45-10.38 1.68-2.48 4.26-6.98 5.74-10 1.47-3.03 3.36-7.98 4.19-11 0.84-3.03 1.79-6.74 2.13-8.25 0.39-1.8 0.08-3.27-0.9-4.25-1.2-1.21-4.56-1.5-17.25-1.49-8.66 0.01-16.26 0.35-16.88 0.75-0.62 0.41-1.64 3.21-2.27 6.24-0.62 3.02-2.17 7.75-3.44 10.5-1.27 2.75-3.85 6.74-5.73 8.88-1.89 2.13-5.23 4.91-7.43 6.17-2.2 1.27-6.7 3-10 3.86-3.3 0.85-9.37 1.56-13.5 1.56-4.12 0-9.52-0.6-12-1.34-2.47-0.75-6.07-2.15-8-3.13-1.92-0.98-5.07-2.99-7-4.48-1.92-1.49-5.31-5.36-7.52-8.61-2.21-3.25-5.29-9.74-6.85-14.41-2.15-6.48-2.98-11.29-3.48-20.26l-0.65-11.75c94.94 0.01 123.18-0.22 124-0.49 1.23-0.41 1.5-2.81 1.51-13.25 0-7.01-0.47-16.58-1.04-21.25-0.58-4.68-1.74-11.43-2.59-15-0.85-3.58-3.76-11.11-6.46-16.75-4.1-8.56-6.19-11.54-12.67-18.05-4.26-4.29-10.22-9.21-13.25-10.93-3.02-1.72-9.1-4.34-13.5-5.82-4.4-1.48-12.27-3.31-17.5-4.05-5.22-0.75-11.3-1.33-13.5-1.28-2.2 0.04-7.6 0.66-12 1.37zm1.75 27.07c2.89-0.78 7.5-1.46 10.25-1.5 2.75-0.04 7.59 0.61 10.75 1.43 3.17 0.83 7.89 2.6 10.5 3.93 2.62 1.33 6.85 4.59 9.4 7.25 2.56 2.65 5.65 6.85 6.89 9.33 1.23 2.47 2.87 6.52 3.64 9 0.77 2.47 1.72 8.66 2.82 23.01l-88.5-0.01 0.61-7.25c0.34-3.99 1.69-10.51 3-14.5 1.32-3.99 3.9-9.61 5.73-12.5 1.84-2.89 5.21-6.94 7.5-9 2.29-2.06 5.96-4.65 8.16-5.75 2.2-1.1 6.37-2.65 9.25-3.44zm-413.25-25.75c-3.02 1-8.2 3.24-11.5 4.98-3.3 1.75-8.64 5.55-11.88 8.44-3.23 2.9-7.28 7.47-9 10.15l-3.12 4.89c-0.88-21.51-1.35-24.57-2.5-25.3-0.82-0.52-7.68-0.95-15.25-0.96-7.56 0-14.42 0.21-15.25 0.49-1.31 0.44-1.5 11.78-1.5 94v93.5h33.5c1.17-87.96 1.95-117.1 2.48-121.5 0.54-4.4 1.99-10.93 3.22-14.5 1.88-5.43 3.48-7.75 9.78-14.08 4.68-4.72 9.6-8.58 13.02-10.22 3.03-1.45 8.65-3.16 12.5-3.79 5.44-0.89 8.68-0.87 14.5 0.12 4.32 0.73 10.03 2.59 13.46 4.37 4.01 2.09 7.19 4.73 9.74 8.1 2.08 2.75 4.79 7.7 6.02 11 2.22 5.95 2.24 6.48 2.51 71 0.15 35.75 0.5 66.01 0.77 67.25 0.5 2.22 0.69 2.25 17.5 2.25h17c-0.03-127.22-0.29-140.73-1.5-146.5-0.81-3.85-3.02-10.15-4.91-14-1.89-3.85-5.6-9.29-8.26-12.09-2.65-2.79-7.75-6.97-11.33-9.27-3.57-2.3-9.87-5.37-14-6.82-6.69-2.34-9.28-2.66-24-2.97-13.86-0.29-17.37-0.06-22 1.46zm241-0.85c-2.47 0.47-6.75 1.62-9.5 2.56-2.75 0.94-7.25 2.85-10 4.23-2.75 1.38-7.02 3.92-9.48 5.63-2.47 1.72-6.71 5.37-9.42 8.12-2.7 2.75-6.73 7.7-8.95 11-2.22 3.3-5.58 9.37-7.47 13.5-1.89 4.12-4.46 11.55-5.7 16.5-1.25 4.95-2.83 14.17-3.52 20.5-0.8 7.32-1.02 16.59-0.61 25.5 0.35 7.7 1.49 18.05 2.53 23 1.04 4.95 3.28 12.6 4.99 17 1.7 4.4 4.79 10.92 6.87 14.48 2.07 3.57 6.91 9.68 10.76 13.59 5.64 5.71 8.85 7.98 16.5 11.65 5.23 2.51 12.54 5.28 16.25 6.17 4.59 1.09 11.32 1.6 21 1.59 9.23-0.01 16.55-0.55 20.75-1.54 3.58-0.84 10.33-3.38 15-5.64 6.73-3.26 10.19-5.81 16.6-12.21 6.7-6.7 8.88-9.73 12.66-17.59 2.52-5.23 5.29-12.76 6.16-16.75 0.87-3.99 1.58-8.6 1.58-10.25v-3c-29.73 0-34.09 0.31-34.37 1.25-0.2 0.69-0.9 4.17-1.54 7.75-0.65 3.57-2.46 9.2-4.03 12.5-1.83 3.85-4.77 7.73-8.2 10.82-3.96 3.56-7.05 5.33-11.86 6.77-3.57 1.07-8.97 1.95-12 1.95-3.02 0-8.53-0.91-12.25-2.02-5.35-1.6-7.94-3.13-12.5-7.37-3.17-2.96-7.15-8-8.87-11.25-1.72-3.25-3.85-8.15-4.73-10.9-0.87-2.75-2.29-9.05-3.14-14-0.99-5.77-1.55-15.28-1.55-26.5-0.01-10.99 0.54-20.66 1.47-26 0.82-4.68 2.53-11.65 3.82-15.5 1.28-3.85 3.49-9.03 4.91-11.5 1.42-2.48 5-6.67 7.96-9.31 2.96-2.65 7.86-5.77 10.88-6.94 4.07-1.56 7.86-2.13 14.53-2.18 8.15-0.07 9.64 0.23 15.5 3.07 3.56 1.73 7.78 4.66 9.38 6.5 1.6 1.85 4.19 6.06 5.75 9.36 1.56 3.3 3.38 8.92 4.04 12.5 0.65 3.57 1.67 6.83 2.25 7.23 0.58 0.41 7.66 0.74 15.73 0.75 11.7 0.02 15-0.29 16.25-1.48 1.16-1.11 1.42-2.61 0.99-5.75-0.33-2.34-1.23-6.95-2.01-10.25-0.78-3.3-3.3-9.83-5.59-14.5-3.15-6.4-5.93-10.23-11.25-15.52-4.37-4.33-9.74-8.42-14.07-10.7-3.85-2.02-9.25-4.43-12-5.33-3.53-1.17-9.53-1.76-20.5-1.99-8.52-0.19-17.52 0.04-20 0.5zm-122.95 3.7c-1.25 0.44-1.42 13.03-1.25 93.42 0.18 81.59 0.39 92.98 1.7 93.42 0.83 0.27 8.03 0.5 16 0.5 7.98 0 15.18-0.23 16-0.5 1.32-0.44 1.5-11.72 1.5-93.5 0-81.78-0.18-93.06-1.5-93.5-0.82-0.28-8.13-0.47-16.25-0.42-8.11 0.04-15.4 0.3-16.2 0.58zm574.25 9.09c-2.2 2.61-5.57 7.22-7.5 10.25-1.92 3.02-4.53 8.2-5.79 11.5-1.68 4.41-2.31 8.25-2.39 14.5-0.06 4.67 0.23 10.19 0.64 12.25 0.62 3.12 1.12 3.71 2.99 3.5 1.71-0.19 3.15-2.06 5.99-7.75 2.05-4.13 5.35-12.45 7.33-18.5 1.98-6.05 4.09-14.6 4.69-19 0.6-4.4 0.79-8.79 0.42-9.75-0.37-0.96-1.06-1.75-1.53-1.75-0.47 0-2.65 2.14-4.85 4.75zm265.13-3.08c-0.41 1-0.48 4.53-0.15 7.83 0.33 3.3 1.59 9.6 2.79 14 1.21 4.4 3.27 10.81 4.57 14.25 1.3 3.44 3.71 8.95 5.36 12.25 1.65 3.3 3.7 6.34 4.54 6.75 0.85 0.41 1.97 0.3 2.51-0.25 0.54-0.55 1.4-3.93 1.92-7.5 0.61-4.13 0.6-9.06-0.01-13.5-0.64-4.71-2.26-9.63-4.92-15-2.18-4.4-6.29-10.7-9.13-14-2.83-3.3-5.51-6.15-5.95-6.33-0.44-0.19-1.13 0.49-1.53 1.5zm-304.12 17.08c-0.35 0.96-0.37 7.15-0.04 13.75 0.46 9.09 1.23 13.81 3.18 19.5 1.41 4.12 4.02 9.9 5.81 12.83 1.78 2.93 5.39 7.43 8.01 10 2.63 2.57 5.44 5.01 6.25 5.42 0.82 0.41 1.93 0.52 2.48 0.25 0.55-0.28 1-1.96 0.99-3.75-0.01-1.79-0.72-5.95-1.56-9.25-0.85-3.3-2.46-8.7-3.58-12-1.11-3.3-4.61-11.4-7.76-18-3.16-6.6-6.94-13.91-8.41-16.25-1.47-2.34-3.14-4.25-3.7-4.25-0.56 0-1.32 0.79-1.67 1.75zm42.92 19.5c-0.54 0.69-2.35 3.95-4 7.25-1.66 3.3-4.02 9.37-5.26 13.5-1.83 6.12-2.17 9.24-1.85 17 0.36 8.42 0.8 10.3 3.89 16.5 2.57 5.14 4.02 7 5.48 7 1.58 0 2.32-1.23 3.62-6 0.89-3.3 2.2-11.63 2.89-18.5 0.69-6.88 1.05-17.23 0.8-23-0.25-5.78-0.98-11.51-1.62-12.75-0.65-1.24-1.58-2.25-2.06-2.25-0.49 0-1.34 0.56-1.89 1.25zm259.75 0.22c-0.92 1.06-1.48 5.7-1.79 14.78-0.25 7.29 0.08 17.97 0.73 23.75 0.66 5.77 1.95 13.15 2.89 16.4 0.93 3.24 2.26 6.06 2.94 6.25 0.69 0.19 1.95-0.21 2.8-0.9 0.85-0.69 2.7-4.18 4.1-7.75 1.56-3.95 2.77-9.44 3.1-14 0.36-5.07 0-9.93-1.11-15-0.9-4.13-3.55-11.3-5.89-15.94-2.33-4.65-4.74-8.6-5.34-8.79-0.6-0.18-1.69 0.35-2.43 1.2zm-297.86 35.03c-0.85 1.15-0.41 3.56 1.87 10.25 1.65 4.81 5.13 12.3 7.75 16.65 2.62 4.34 8.14 11.32 12.26 15.5 5.54 5.62 9.66 8.72 15.75 11.86 7.27 3.73 8.4 4.05 9.5 2.7 1.03-1.26 0.68-2.63-2.04-7.75-1.8-3.42-6.3-10.49-9.99-15.71-3.71-5.26-12.4-15.2-19.46-22.25-7.02-7.01-13.16-12.75-13.64-12.75-0.49 0-1.39 0.67-2 1.5zm324.45 10.75c-6.69 6.74-15.19 16.3-18.87 21.25-3.69 4.95-8.28 12.04-10.2 15.75-1.92 3.71-3.27 7.42-3 8.25 0.28 0.82 1.18 1.5 2 1.5 0.83 0 4.09-1.3 7.25-2.88 3.17-1.59 8.23-4.88 11.25-7.32 3.03-2.45 7.86-7.56 10.75-11.37 2.88-3.81 6.9-10.08 8.93-13.93 2.03-3.85 4.7-10.15 5.92-14 1.7-5.36 1.95-7.3 1.06-8.3-0.63-0.71-1.55-1.27-2.03-1.25-0.49 0.03-6.36 5.56-13.06 12.3zm-277.22-4.59c-1.47 3.14-1.8 6.56-1.82 18.89l-0.03 15.05c6.25 12.67 9.16 16.61 13.42 20.65 3.53 3.33 6.82 5.63 7.83 5.47 1.5-0.24 1.74-1.36 1.64-7.75-0.07-4.56-1.18-11.56-2.84-17.97-1.5-5.78-4.18-14.55-5.94-19.5-1.77-4.95-4.32-10.99-5.66-13.43-1.35-2.43-2.98-4.61-3.63-4.84-0.65-0.22-1.98 1.32-2.97 3.43zm239.74-0.49c-1.15 1.83-3.41 6.48-5.03 10.33-1.62 3.85-4.57 12.85-6.55 20-2.03 7.31-3.92 16.83-4.31 21.75-0.69 8.71-0.68 8.76 1.63 8.75 1.5 0 4.38-2.05 8.07-5.75 3.16-3.16 6.93-7.78 8.38-10.25 1.44-2.48 3.38-7.43 4.31-11 1.29-5.01 1.55-9.03 1.12-17.5-0.3-6.05-1.15-12.77-1.88-14.93-0.73-2.15-1.85-4.1-2.49-4.32-0.64-0.22-2.1 1.1-3.25 2.92zm-215.92 38.08c-0.75 0.88-0.66 3.15 0.29 7.75 0.74 3.57 2.2 8.75 3.23 11.5 1.04 2.75 3.05 7.02 4.48 9.5 1.43 2.47 4.56 6.27 6.96 8.44 2.41 2.16 6.17 4.72 8.37 5.68 2.2 0.96 7.38 2.06 11.5 2.44 6.39 0.59 7.73 0.44 9-1.02 1.35-1.53 1.29-2.09-0.5-5.29-1.1-1.97-6.27-8.08-11.5-13.57-5.22-5.49-14-13.74-19.5-18.32-5.5-4.59-10.28-8.35-10.63-8.36-0.35 0-1.12 0.56-1.7 1.25zm188.29 4.44c-3.83 3.14-12.05 10.68-18.29 16.76-6.23 6.08-12.65 13.07-14.27 15.55-1.61 2.47-2.93 5.29-2.92 6.25 0.02 1.07 1.09 2 2.77 2.4 1.52 0.36 5.68 0.21 9.25-0.34 3.58-0.54 8.69-2.07 11.37-3.4 2.67-1.33 6.61-4.32 8.75-6.66 2.14-2.34 5.01-6.5 6.38-9.25 1.38-2.75 3.44-8.49 4.59-12.75 1.15-4.26 1.93-9.07 1.75-10.67-0.18-1.61-0.81-3.08-1.38-3.27-0.58-0.18-4.18 2.23-8 5.38zm-236.91 6.31c-0.3 0.55 0.87 3.36 2.59 6.25 1.73 2.89 5.22 7.93 7.75 11.2 2.54 3.27 6.86 7.73 9.61 9.9 2.75 2.17 7.93 5.32 11.5 7 5.66 2.65 7.86 3.09 17 3.43 8.31 0.31 10.92 0.08 12.5-1.13 1.96-1.48 1.92-1.61-2-5.64-2.2-2.27-7.82-6.75-12.5-9.96-4.67-3.21-13.22-8.34-19-11.39-5.77-3.06-13.53-6.71-17.25-8.11-3.71-1.41-7.4-2.55-8.2-2.55-0.8 0-1.7 0.45-2 1zm286.95 0.37c-2.2 0.68-9.85 4.3-17 8.06-7.15 3.75-16.6 9.22-21 12.15-4.4 2.93-10.02 7.4-12.5 9.94-4.37 4.47-4.44 4.65-2.5 6.06 1.37 0.99 4.55 1.44 10 1.42 4.4-0.01 10.48-0.69 13.5-1.51 3.03-0.82 7.92-2.95 10.87-4.74 2.95-1.79 7.79-5.61 10.75-8.5 2.96-2.89 7.84-8.96 10.85-13.5 4.34-6.56 5.21-8.52 4.25-9.55-0.67-0.71-1.67-1.24-2.22-1.18-0.55 0.06-2.8 0.67-5 1.35z"/>
</svg>